%TF.GenerationSoftware,KiCad,Pcbnew,10.0.1*%
%TF.CreationDate,2026-05-05T20:47:52+02:00*%
%TF.ProjectId,MMS3_hat_ruski_wentylator_do_pieca,4d4d5333-5f68-4617-945f-7275736b695f,R0*%
%TF.SameCoordinates,Original*%
%TF.FileFunction,Legend,Top*%
%TF.FilePolarity,Positive*%
%FSLAX46Y46*%
G04 Gerber Fmt 4.6, Leading zero omitted, Abs format (unit mm)*
G04 Created by KiCad (PCBNEW 10.0.1) date 2026-05-05 20:47:52*
%MOMM*%
%LPD*%
G01*
G04 APERTURE LIST*
G04 Aperture macros list*
%AMRoundRect*
0 Rectangle with rounded corners*
0 $1 Rounding radius*
0 $2 $3 $4 $5 $6 $7 $8 $9 X,Y pos of 4 corners*
0 Add a 4 corners polygon primitive as box body*
4,1,4,$2,$3,$4,$5,$6,$7,$8,$9,$2,$3,0*
0 Add four circle primitives for the rounded corners*
1,1,$1+$1,$2,$3*
1,1,$1+$1,$4,$5*
1,1,$1+$1,$6,$7*
1,1,$1+$1,$8,$9*
0 Add four rect primitives between the rounded corners*
20,1,$1+$1,$2,$3,$4,$5,0*
20,1,$1+$1,$4,$5,$6,$7,0*
20,1,$1+$1,$6,$7,$8,$9,0*
20,1,$1+$1,$8,$9,$2,$3,0*%
G04 Aperture macros list end*
%ADD10C,0.100000*%
%ADD11C,0.200000*%
%ADD12C,0.150000*%
%ADD13C,0.120000*%
%ADD14C,0.300000*%
%ADD15C,0.060000*%
%ADD16C,0.127000*%
%ADD17C,0.250000*%
%ADD18C,0.500000*%
%ADD19RoundRect,0.250000X-0.600000X-0.725000X0.600000X-0.725000X0.600000X0.725000X-0.600000X0.725000X0*%
%ADD20O,1.700000X1.950000*%
%ADD21RoundRect,0.150000X0.590000X0.150000X-0.590000X0.150000X-0.590000X-0.150000X0.590000X-0.150000X0*%
%ADD22R,1.700000X1.700000*%
%ADD23C,1.700000*%
%ADD24RoundRect,0.219000X-0.294000X0.219000X-0.294000X-0.219000X0.294000X-0.219000X0.294000X0.219000X0*%
%ADD25O,0.588000X2.045000*%
%ADD26RoundRect,0.219000X0.219000X0.294000X-0.219000X0.294000X-0.219000X-0.294000X0.219000X-0.294000X0*%
%ADD27RoundRect,0.287778X0.714222X-0.489222X0.714222X0.489222X-0.714222X0.489222X-0.714222X-0.489222X0*%
%ADD28RoundRect,0.244000X-0.269000X0.244000X-0.269000X-0.244000X0.269000X-0.244000X0.269000X0.244000X0*%
%ADD29RoundRect,0.266521X-0.671479X0.346479X-0.671479X-0.346479X0.671479X-0.346479X0.671479X0.346479X0*%
%ADD30R,0.900000X2.000000*%
%ADD31RoundRect,1.025000X1.025000X1.025000X-1.025000X1.025000X-1.025000X-1.025000X1.025000X-1.025000X0*%
%ADD32C,4.100000*%
%ADD33R,4.000000X1.069000*%
%ADD34R,8.890000X10.660000*%
%ADD35RoundRect,0.266521X-0.346479X-0.671479X0.346479X-0.671479X0.346479X0.671479X-0.346479X0.671479X0*%
%ADD36RoundRect,0.250000X-1.000000X-0.300000X1.000000X-0.300000X1.000000X0.300000X-1.000000X0.300000X0*%
%ADD37C,0.500000*%
%ADD38RoundRect,0.250000X-0.920000X-1.550000X0.920000X-1.550000X0.920000X1.550000X-0.920000X1.550000X0*%
%ADD39RoundRect,0.250000X0.450000X0.350000X-0.450000X0.350000X-0.450000X-0.350000X0.450000X-0.350000X0*%
%ADD40RoundRect,0.239000X0.239000X0.274000X-0.239000X0.274000X-0.239000X-0.274000X0.239000X-0.274000X0*%
%ADD41C,3.100000*%
%ADD42C,4.700000*%
%ADD43RoundRect,0.244000X-0.244000X-0.269000X0.244000X-0.269000X0.244000X0.269000X-0.244000X0.269000X0*%
%ADD44R,1.000000X3.000000*%
%ADD45RoundRect,0.250000X1.750000X1.000000X-1.750000X1.000000X-1.750000X-1.000000X1.750000X-1.000000X0*%
%ADD46R,2.000000X1.905000*%
%ADD47O,2.000000X1.905000*%
%ADD48RoundRect,0.244000X0.269000X-0.244000X0.269000X0.244000X-0.269000X0.244000X-0.269000X-0.244000X0*%
%ADD49RoundRect,0.250000X1.000000X-1.750000X1.000000X1.750000X-1.000000X1.750000X-1.000000X-1.750000X0*%
%ADD50O,0.570000X1.950000*%
%ADD51RoundRect,0.219000X0.294000X-0.219000X0.294000X0.219000X-0.294000X0.219000X-0.294000X-0.219000X0*%
%ADD52RoundRect,0.159000X-0.189000X0.159000X-0.189000X-0.159000X0.189000X-0.159000X0.189000X0.159000X0*%
%ADD53RoundRect,0.239000X-0.239000X-0.274000X0.239000X-0.274000X0.239000X0.274000X-0.239000X0.274000X0*%
%ADD54RoundRect,0.260556X-0.677444X1.027444X-0.677444X-1.027444X0.677444X-1.027444X0.677444X1.027444X0*%
%ADD55C,2.700000*%
%ADD56RoundRect,0.150000X-0.590000X-0.150000X0.590000X-0.150000X0.590000X0.150000X-0.590000X0.150000X0*%
%ADD57O,0.364000X1.742000*%
%ADD58RoundRect,0.219000X-0.219000X-0.294000X0.219000X-0.294000X0.219000X0.294000X-0.219000X0.294000X0*%
%ADD59RoundRect,0.159000X-0.159000X-0.189000X0.159000X-0.189000X0.159000X0.189000X-0.159000X0.189000X0*%
%ADD60RoundRect,0.159000X0.189000X-0.159000X0.189000X0.159000X-0.189000X0.159000X-0.189000X-0.159000X0*%
%ADD61RoundRect,0.244000X0.244000X0.269000X-0.244000X0.269000X-0.244000X-0.269000X0.244000X-0.269000X0*%
%ADD62R,2.900000X5.400000*%
%ADD63RoundRect,0.260556X1.027444X0.677444X-1.027444X0.677444X-1.027444X-0.677444X1.027444X-0.677444X0*%
%ADD64RoundRect,0.100000X0.640000X0.100000X-0.640000X0.100000X-0.640000X-0.100000X0.640000X-0.100000X0*%
%ADD65RoundRect,0.250000X-1.750000X-1.000000X1.750000X-1.000000X1.750000X1.000000X-1.750000X1.000000X0*%
G04 APERTURE END LIST*
D10*
X119478933Y-135352329D02*
X131300000Y-135352329D01*
X131300000Y-137000000D01*
X119478933Y-137000000D01*
X119478933Y-135352329D01*
X120189466Y-134376164D02*
X120989466Y-134376164D01*
X120589466Y-134976164D02*
X120189466Y-134376164D01*
X120989466Y-134376164D02*
X120589466Y-134976164D01*
X132100000Y-136100000D02*
X134100000Y-136100000D01*
X134087382Y-136099486D02*
X133587382Y-136599486D01*
X134100000Y-136100000D02*
X133600000Y-135600000D01*
X174500000Y-97385000D02*
X172700000Y-97385000D01*
X174500000Y-97385000D02*
X173900000Y-96985000D01*
X174500000Y-97385000D02*
X173900000Y-97785000D01*
X120301864Y-136002271D02*
X120244722Y-135973700D01*
X120244722Y-135973700D02*
X120159007Y-135973700D01*
X120159007Y-135973700D02*
X120073293Y-136002271D01*
X120073293Y-136002271D02*
X120016150Y-136059414D01*
X120016150Y-136059414D02*
X119987579Y-136116557D01*
X119987579Y-136116557D02*
X119959007Y-136230843D01*
X119959007Y-136230843D02*
X119959007Y-136316557D01*
X119959007Y-136316557D02*
X119987579Y-136430843D01*
X119987579Y-136430843D02*
X120016150Y-136487986D01*
X120016150Y-136487986D02*
X120073293Y-136545129D01*
X120073293Y-136545129D02*
X120159007Y-136573700D01*
X120159007Y-136573700D02*
X120216150Y-136573700D01*
X120216150Y-136573700D02*
X120301864Y-136545129D01*
X120301864Y-136545129D02*
X120330436Y-136516557D01*
X120330436Y-136516557D02*
X120330436Y-136316557D01*
X120330436Y-136316557D02*
X120216150Y-136316557D01*
X120587579Y-136573700D02*
X120587579Y-135973700D01*
X120587579Y-135973700D02*
X120930436Y-136573700D01*
X120930436Y-136573700D02*
X120930436Y-135973700D01*
X121216150Y-136573700D02*
X121216150Y-135973700D01*
X121216150Y-135973700D02*
X121359007Y-135973700D01*
X121359007Y-135973700D02*
X121444721Y-136002271D01*
X121444721Y-136002271D02*
X121501864Y-136059414D01*
X121501864Y-136059414D02*
X121530435Y-136116557D01*
X121530435Y-136116557D02*
X121559007Y-136230843D01*
X121559007Y-136230843D02*
X121559007Y-136316557D01*
X121559007Y-136316557D02*
X121530435Y-136430843D01*
X121530435Y-136430843D02*
X121501864Y-136487986D01*
X121501864Y-136487986D02*
X121444721Y-136545129D01*
X121444721Y-136545129D02*
X121359007Y-136573700D01*
X121359007Y-136573700D02*
X121216150Y-136573700D01*
X122416150Y-136773700D02*
X122416150Y-135916557D01*
X123587579Y-135973700D02*
X123301865Y-135973700D01*
X123301865Y-135973700D02*
X123273293Y-136259414D01*
X123273293Y-136259414D02*
X123301865Y-136230843D01*
X123301865Y-136230843D02*
X123359008Y-136202271D01*
X123359008Y-136202271D02*
X123501865Y-136202271D01*
X123501865Y-136202271D02*
X123559008Y-136230843D01*
X123559008Y-136230843D02*
X123587579Y-136259414D01*
X123587579Y-136259414D02*
X123616150Y-136316557D01*
X123616150Y-136316557D02*
X123616150Y-136459414D01*
X123616150Y-136459414D02*
X123587579Y-136516557D01*
X123587579Y-136516557D02*
X123559008Y-136545129D01*
X123559008Y-136545129D02*
X123501865Y-136573700D01*
X123501865Y-136573700D02*
X123359008Y-136573700D01*
X123359008Y-136573700D02*
X123301865Y-136545129D01*
X123301865Y-136545129D02*
X123273293Y-136516557D01*
X123787579Y-135973700D02*
X123987579Y-136573700D01*
X123987579Y-136573700D02*
X124187579Y-135973700D01*
X124987580Y-136773700D02*
X124987580Y-135916557D01*
X125787580Y-135973700D02*
X125987580Y-136573700D01*
X125987580Y-136573700D02*
X126187580Y-135973700D01*
X126387581Y-136573700D02*
X126387581Y-136173700D01*
X126387581Y-136230843D02*
X126416152Y-136202271D01*
X126416152Y-136202271D02*
X126473295Y-136173700D01*
X126473295Y-136173700D02*
X126559009Y-136173700D01*
X126559009Y-136173700D02*
X126616152Y-136202271D01*
X126616152Y-136202271D02*
X126644724Y-136259414D01*
X126644724Y-136259414D02*
X126644724Y-136573700D01*
X126644724Y-136259414D02*
X126673295Y-136202271D01*
X126673295Y-136202271D02*
X126730438Y-136173700D01*
X126730438Y-136173700D02*
X126816152Y-136173700D01*
X126816152Y-136173700D02*
X126873295Y-136202271D01*
X126873295Y-136202271D02*
X126901866Y-136259414D01*
X126901866Y-136259414D02*
X126901866Y-136573700D01*
X127273295Y-136573700D02*
X127216152Y-136545129D01*
X127216152Y-136545129D02*
X127187581Y-136516557D01*
X127187581Y-136516557D02*
X127159009Y-136459414D01*
X127159009Y-136459414D02*
X127159009Y-136287986D01*
X127159009Y-136287986D02*
X127187581Y-136230843D01*
X127187581Y-136230843D02*
X127216152Y-136202271D01*
X127216152Y-136202271D02*
X127273295Y-136173700D01*
X127273295Y-136173700D02*
X127359009Y-136173700D01*
X127359009Y-136173700D02*
X127416152Y-136202271D01*
X127416152Y-136202271D02*
X127444724Y-136230843D01*
X127444724Y-136230843D02*
X127473295Y-136287986D01*
X127473295Y-136287986D02*
X127473295Y-136459414D01*
X127473295Y-136459414D02*
X127444724Y-136516557D01*
X127444724Y-136516557D02*
X127416152Y-136545129D01*
X127416152Y-136545129D02*
X127359009Y-136573700D01*
X127359009Y-136573700D02*
X127273295Y-136573700D01*
X127644723Y-136173700D02*
X127873295Y-136173700D01*
X127730438Y-135973700D02*
X127730438Y-136487986D01*
X127730438Y-136487986D02*
X127759009Y-136545129D01*
X127759009Y-136545129D02*
X127816152Y-136573700D01*
X127816152Y-136573700D02*
X127873295Y-136573700D01*
X128673295Y-136773700D02*
X128673295Y-135916557D01*
X129559010Y-136573700D02*
X129559010Y-135973700D01*
X129559010Y-136259414D02*
X129901867Y-136259414D01*
X129901867Y-136573700D02*
X129901867Y-135973700D01*
X130444724Y-136573700D02*
X130444724Y-136259414D01*
X130444724Y-136259414D02*
X130416152Y-136202271D01*
X130416152Y-136202271D02*
X130359009Y-136173700D01*
X130359009Y-136173700D02*
X130244724Y-136173700D01*
X130244724Y-136173700D02*
X130187581Y-136202271D01*
X130444724Y-136545129D02*
X130387581Y-136573700D01*
X130387581Y-136573700D02*
X130244724Y-136573700D01*
X130244724Y-136573700D02*
X130187581Y-136545129D01*
X130187581Y-136545129D02*
X130159009Y-136487986D01*
X130159009Y-136487986D02*
X130159009Y-136430843D01*
X130159009Y-136430843D02*
X130187581Y-136373700D01*
X130187581Y-136373700D02*
X130244724Y-136345129D01*
X130244724Y-136345129D02*
X130387581Y-136345129D01*
X130387581Y-136345129D02*
X130444724Y-136316557D01*
X130816152Y-136573700D02*
X130759009Y-136545129D01*
X130759009Y-136545129D02*
X130730438Y-136487986D01*
X130730438Y-136487986D02*
X130730438Y-135973700D01*
D11*
X120345863Y-126932331D02*
X120345863Y-125932331D01*
X120345863Y-125932331D02*
X120645863Y-126646616D01*
X120645863Y-126646616D02*
X120945863Y-125932331D01*
X120945863Y-125932331D02*
X120945863Y-126932331D01*
X121374434Y-126932331D02*
X121374434Y-125932331D01*
X121374434Y-125932331D02*
X121674434Y-126646616D01*
X121674434Y-126646616D02*
X121974434Y-125932331D01*
X121974434Y-125932331D02*
X121974434Y-126932331D01*
X122360148Y-126884712D02*
X122488720Y-126932331D01*
X122488720Y-126932331D02*
X122703005Y-126932331D01*
X122703005Y-126932331D02*
X122788720Y-126884712D01*
X122788720Y-126884712D02*
X122831577Y-126837092D01*
X122831577Y-126837092D02*
X122874434Y-126741854D01*
X122874434Y-126741854D02*
X122874434Y-126646616D01*
X122874434Y-126646616D02*
X122831577Y-126551378D01*
X122831577Y-126551378D02*
X122788720Y-126503759D01*
X122788720Y-126503759D02*
X122703005Y-126456140D01*
X122703005Y-126456140D02*
X122531577Y-126408521D01*
X122531577Y-126408521D02*
X122445862Y-126360902D01*
X122445862Y-126360902D02*
X122403005Y-126313283D01*
X122403005Y-126313283D02*
X122360148Y-126218045D01*
X122360148Y-126218045D02*
X122360148Y-126122807D01*
X122360148Y-126122807D02*
X122403005Y-126027569D01*
X122403005Y-126027569D02*
X122445862Y-125979950D01*
X122445862Y-125979950D02*
X122531577Y-125932331D01*
X122531577Y-125932331D02*
X122745862Y-125932331D01*
X122745862Y-125932331D02*
X122874434Y-125979950D01*
X123174434Y-125932331D02*
X123731577Y-125932331D01*
X123731577Y-125932331D02*
X123431577Y-126313283D01*
X123431577Y-126313283D02*
X123560148Y-126313283D01*
X123560148Y-126313283D02*
X123645863Y-126360902D01*
X123645863Y-126360902D02*
X123688720Y-126408521D01*
X123688720Y-126408521D02*
X123731577Y-126503759D01*
X123731577Y-126503759D02*
X123731577Y-126741854D01*
X123731577Y-126741854D02*
X123688720Y-126837092D01*
X123688720Y-126837092D02*
X123645863Y-126884712D01*
X123645863Y-126884712D02*
X123560148Y-126932331D01*
X123560148Y-126932331D02*
X123303005Y-126932331D01*
X123303005Y-126932331D02*
X123217291Y-126884712D01*
X123217291Y-126884712D02*
X123174434Y-126837092D01*
X124803005Y-126932331D02*
X124803005Y-125932331D01*
X124803005Y-126408521D02*
X125317291Y-126408521D01*
X125317291Y-126932331D02*
X125317291Y-125932331D01*
X126131577Y-126932331D02*
X126131577Y-126408521D01*
X126131577Y-126408521D02*
X126088719Y-126313283D01*
X126088719Y-126313283D02*
X126003005Y-126265664D01*
X126003005Y-126265664D02*
X125831577Y-126265664D01*
X125831577Y-126265664D02*
X125745862Y-126313283D01*
X126131577Y-126884712D02*
X126045862Y-126932331D01*
X126045862Y-126932331D02*
X125831577Y-126932331D01*
X125831577Y-126932331D02*
X125745862Y-126884712D01*
X125745862Y-126884712D02*
X125703005Y-126789473D01*
X125703005Y-126789473D02*
X125703005Y-126694235D01*
X125703005Y-126694235D02*
X125745862Y-126598997D01*
X125745862Y-126598997D02*
X125831577Y-126551378D01*
X125831577Y-126551378D02*
X126045862Y-126551378D01*
X126045862Y-126551378D02*
X126131577Y-126503759D01*
X126431577Y-126265664D02*
X126774434Y-126265664D01*
X126560148Y-125932331D02*
X126560148Y-126789473D01*
X126560148Y-126789473D02*
X126603005Y-126884712D01*
X126603005Y-126884712D02*
X126688720Y-126932331D01*
X126688720Y-126932331D02*
X126774434Y-126932331D01*
X120860149Y-128542275D02*
X120560149Y-128066084D01*
X120345863Y-128542275D02*
X120345863Y-127542275D01*
X120345863Y-127542275D02*
X120688720Y-127542275D01*
X120688720Y-127542275D02*
X120774435Y-127589894D01*
X120774435Y-127589894D02*
X120817292Y-127637513D01*
X120817292Y-127637513D02*
X120860149Y-127732751D01*
X120860149Y-127732751D02*
X120860149Y-127875608D01*
X120860149Y-127875608D02*
X120817292Y-127970846D01*
X120817292Y-127970846D02*
X120774435Y-128018465D01*
X120774435Y-128018465D02*
X120688720Y-128066084D01*
X120688720Y-128066084D02*
X120345863Y-128066084D01*
X121631578Y-127875608D02*
X121631578Y-128542275D01*
X121245863Y-127875608D02*
X121245863Y-128399417D01*
X121245863Y-128399417D02*
X121288720Y-128494656D01*
X121288720Y-128494656D02*
X121374435Y-128542275D01*
X121374435Y-128542275D02*
X121503006Y-128542275D01*
X121503006Y-128542275D02*
X121588720Y-128494656D01*
X121588720Y-128494656D02*
X121631578Y-128447036D01*
X122017292Y-128494656D02*
X122103006Y-128542275D01*
X122103006Y-128542275D02*
X122274435Y-128542275D01*
X122274435Y-128542275D02*
X122360149Y-128494656D01*
X122360149Y-128494656D02*
X122403006Y-128399417D01*
X122403006Y-128399417D02*
X122403006Y-128351798D01*
X122403006Y-128351798D02*
X122360149Y-128256560D01*
X122360149Y-128256560D02*
X122274435Y-128208941D01*
X122274435Y-128208941D02*
X122145864Y-128208941D01*
X122145864Y-128208941D02*
X122060149Y-128161322D01*
X122060149Y-128161322D02*
X122017292Y-128066084D01*
X122017292Y-128066084D02*
X122017292Y-128018465D01*
X122017292Y-128018465D02*
X122060149Y-127923227D01*
X122060149Y-127923227D02*
X122145864Y-127875608D01*
X122145864Y-127875608D02*
X122274435Y-127875608D01*
X122274435Y-127875608D02*
X122360149Y-127923227D01*
X122788720Y-128542275D02*
X122788720Y-127542275D01*
X122874435Y-128161322D02*
X123131577Y-128542275D01*
X123131577Y-127875608D02*
X122788720Y-128256560D01*
X123517291Y-128542275D02*
X123517291Y-127875608D01*
X123517291Y-127542275D02*
X123474434Y-127589894D01*
X123474434Y-127589894D02*
X123517291Y-127637513D01*
X123517291Y-127637513D02*
X123560148Y-127589894D01*
X123560148Y-127589894D02*
X123517291Y-127542275D01*
X123517291Y-127542275D02*
X123517291Y-127637513D01*
X124545862Y-127875608D02*
X124717291Y-128542275D01*
X124717291Y-128542275D02*
X124888719Y-128066084D01*
X124888719Y-128066084D02*
X125060148Y-128542275D01*
X125060148Y-128542275D02*
X125231576Y-127875608D01*
X125917290Y-128494656D02*
X125831576Y-128542275D01*
X125831576Y-128542275D02*
X125660148Y-128542275D01*
X125660148Y-128542275D02*
X125574433Y-128494656D01*
X125574433Y-128494656D02*
X125531576Y-128399417D01*
X125531576Y-128399417D02*
X125531576Y-128018465D01*
X125531576Y-128018465D02*
X125574433Y-127923227D01*
X125574433Y-127923227D02*
X125660148Y-127875608D01*
X125660148Y-127875608D02*
X125831576Y-127875608D01*
X125831576Y-127875608D02*
X125917290Y-127923227D01*
X125917290Y-127923227D02*
X125960148Y-128018465D01*
X125960148Y-128018465D02*
X125960148Y-128113703D01*
X125960148Y-128113703D02*
X125531576Y-128208941D01*
X126345862Y-127875608D02*
X126345862Y-128542275D01*
X126345862Y-127970846D02*
X126388719Y-127923227D01*
X126388719Y-127923227D02*
X126474434Y-127875608D01*
X126474434Y-127875608D02*
X126603005Y-127875608D01*
X126603005Y-127875608D02*
X126688719Y-127923227D01*
X126688719Y-127923227D02*
X126731577Y-128018465D01*
X126731577Y-128018465D02*
X126731577Y-128542275D01*
X127031577Y-127875608D02*
X127374434Y-127875608D01*
X127160148Y-127542275D02*
X127160148Y-128399417D01*
X127160148Y-128399417D02*
X127203005Y-128494656D01*
X127203005Y-128494656D02*
X127288720Y-128542275D01*
X127288720Y-128542275D02*
X127374434Y-128542275D01*
X127588720Y-127875608D02*
X127803006Y-128542275D01*
X128017291Y-127875608D02*
X127803006Y-128542275D01*
X127803006Y-128542275D02*
X127717291Y-128780370D01*
X127717291Y-128780370D02*
X127674434Y-128827989D01*
X127674434Y-128827989D02*
X127588720Y-128875608D01*
X128488720Y-128542275D02*
X128403005Y-128494656D01*
X128403005Y-128494656D02*
X128360148Y-128399417D01*
X128360148Y-128399417D02*
X128360148Y-127542275D01*
X129217292Y-128542275D02*
X129217292Y-128018465D01*
X129217292Y-128018465D02*
X129174434Y-127923227D01*
X129174434Y-127923227D02*
X129088720Y-127875608D01*
X129088720Y-127875608D02*
X128917292Y-127875608D01*
X128917292Y-127875608D02*
X128831577Y-127923227D01*
X129217292Y-128494656D02*
X129131577Y-128542275D01*
X129131577Y-128542275D02*
X128917292Y-128542275D01*
X128917292Y-128542275D02*
X128831577Y-128494656D01*
X128831577Y-128494656D02*
X128788720Y-128399417D01*
X128788720Y-128399417D02*
X128788720Y-128304179D01*
X128788720Y-128304179D02*
X128831577Y-128208941D01*
X128831577Y-128208941D02*
X128917292Y-128161322D01*
X128917292Y-128161322D02*
X129131577Y-128161322D01*
X129131577Y-128161322D02*
X129217292Y-128113703D01*
X129517292Y-127875608D02*
X129860149Y-127875608D01*
X129645863Y-127542275D02*
X129645863Y-128399417D01*
X129645863Y-128399417D02*
X129688720Y-128494656D01*
X129688720Y-128494656D02*
X129774435Y-128542275D01*
X129774435Y-128542275D02*
X129860149Y-128542275D01*
X130288721Y-128542275D02*
X130203006Y-128494656D01*
X130203006Y-128494656D02*
X130160149Y-128447036D01*
X130160149Y-128447036D02*
X130117292Y-128351798D01*
X130117292Y-128351798D02*
X130117292Y-128066084D01*
X130117292Y-128066084D02*
X130160149Y-127970846D01*
X130160149Y-127970846D02*
X130203006Y-127923227D01*
X130203006Y-127923227D02*
X130288721Y-127875608D01*
X130288721Y-127875608D02*
X130417292Y-127875608D01*
X130417292Y-127875608D02*
X130503006Y-127923227D01*
X130503006Y-127923227D02*
X130545864Y-127970846D01*
X130545864Y-127970846D02*
X130588721Y-128066084D01*
X130588721Y-128066084D02*
X130588721Y-128351798D01*
X130588721Y-128351798D02*
X130545864Y-128447036D01*
X130545864Y-128447036D02*
X130503006Y-128494656D01*
X130503006Y-128494656D02*
X130417292Y-128542275D01*
X130417292Y-128542275D02*
X130288721Y-128542275D01*
X130974435Y-128542275D02*
X130974435Y-127875608D01*
X130974435Y-128066084D02*
X131017292Y-127970846D01*
X131017292Y-127970846D02*
X131060150Y-127923227D01*
X131060150Y-127923227D02*
X131145864Y-127875608D01*
X131145864Y-127875608D02*
X131231578Y-127875608D01*
X120217292Y-129152219D02*
X120517292Y-130152219D01*
X120517292Y-130152219D02*
X120817292Y-129152219D01*
X121460149Y-130104600D02*
X121374435Y-130152219D01*
X121374435Y-130152219D02*
X121203007Y-130152219D01*
X121203007Y-130152219D02*
X121117292Y-130104600D01*
X121117292Y-130104600D02*
X121074435Y-130009361D01*
X121074435Y-130009361D02*
X121074435Y-129628409D01*
X121074435Y-129628409D02*
X121117292Y-129533171D01*
X121117292Y-129533171D02*
X121203007Y-129485552D01*
X121203007Y-129485552D02*
X121374435Y-129485552D01*
X121374435Y-129485552D02*
X121460149Y-129533171D01*
X121460149Y-129533171D02*
X121503007Y-129628409D01*
X121503007Y-129628409D02*
X121503007Y-129723647D01*
X121503007Y-129723647D02*
X121074435Y-129818885D01*
X121888721Y-130152219D02*
X121888721Y-129485552D01*
X121888721Y-129676028D02*
X121931578Y-129580790D01*
X121931578Y-129580790D02*
X121974436Y-129533171D01*
X121974436Y-129533171D02*
X122060150Y-129485552D01*
X122060150Y-129485552D02*
X122145864Y-129485552D01*
X122403007Y-130104600D02*
X122488721Y-130152219D01*
X122488721Y-130152219D02*
X122660150Y-130152219D01*
X122660150Y-130152219D02*
X122745864Y-130104600D01*
X122745864Y-130104600D02*
X122788721Y-130009361D01*
X122788721Y-130009361D02*
X122788721Y-129961742D01*
X122788721Y-129961742D02*
X122745864Y-129866504D01*
X122745864Y-129866504D02*
X122660150Y-129818885D01*
X122660150Y-129818885D02*
X122531579Y-129818885D01*
X122531579Y-129818885D02*
X122445864Y-129771266D01*
X122445864Y-129771266D02*
X122403007Y-129676028D01*
X122403007Y-129676028D02*
X122403007Y-129628409D01*
X122403007Y-129628409D02*
X122445864Y-129533171D01*
X122445864Y-129533171D02*
X122531579Y-129485552D01*
X122531579Y-129485552D02*
X122660150Y-129485552D01*
X122660150Y-129485552D02*
X122745864Y-129533171D01*
X123174435Y-130152219D02*
X123174435Y-129485552D01*
X123174435Y-129152219D02*
X123131578Y-129199838D01*
X123131578Y-129199838D02*
X123174435Y-129247457D01*
X123174435Y-129247457D02*
X123217292Y-129199838D01*
X123217292Y-129199838D02*
X123174435Y-129152219D01*
X123174435Y-129152219D02*
X123174435Y-129247457D01*
X123731578Y-130152219D02*
X123645863Y-130104600D01*
X123645863Y-130104600D02*
X123603006Y-130056980D01*
X123603006Y-130056980D02*
X123560149Y-129961742D01*
X123560149Y-129961742D02*
X123560149Y-129676028D01*
X123560149Y-129676028D02*
X123603006Y-129580790D01*
X123603006Y-129580790D02*
X123645863Y-129533171D01*
X123645863Y-129533171D02*
X123731578Y-129485552D01*
X123731578Y-129485552D02*
X123860149Y-129485552D01*
X123860149Y-129485552D02*
X123945863Y-129533171D01*
X123945863Y-129533171D02*
X123988721Y-129580790D01*
X123988721Y-129580790D02*
X124031578Y-129676028D01*
X124031578Y-129676028D02*
X124031578Y-129961742D01*
X124031578Y-129961742D02*
X123988721Y-130056980D01*
X123988721Y-130056980D02*
X123945863Y-130104600D01*
X123945863Y-130104600D02*
X123860149Y-130152219D01*
X123860149Y-130152219D02*
X123731578Y-130152219D01*
X124417292Y-129485552D02*
X124417292Y-130152219D01*
X124417292Y-129580790D02*
X124460149Y-129533171D01*
X124460149Y-129533171D02*
X124545864Y-129485552D01*
X124545864Y-129485552D02*
X124674435Y-129485552D01*
X124674435Y-129485552D02*
X124760149Y-129533171D01*
X124760149Y-129533171D02*
X124803007Y-129628409D01*
X124803007Y-129628409D02*
X124803007Y-130152219D01*
X126388721Y-130152219D02*
X125874435Y-130152219D01*
X126131578Y-130152219D02*
X126131578Y-129152219D01*
X126131578Y-129152219D02*
X126045864Y-129295076D01*
X126045864Y-129295076D02*
X125960149Y-129390314D01*
X125960149Y-129390314D02*
X125874435Y-129437933D01*
X126774435Y-130056980D02*
X126817292Y-130104600D01*
X126817292Y-130104600D02*
X126774435Y-130152219D01*
X126774435Y-130152219D02*
X126731578Y-130104600D01*
X126731578Y-130104600D02*
X126774435Y-130056980D01*
X126774435Y-130056980D02*
X126774435Y-130152219D01*
X127374435Y-129152219D02*
X127460149Y-129152219D01*
X127460149Y-129152219D02*
X127545863Y-129199838D01*
X127545863Y-129199838D02*
X127588721Y-129247457D01*
X127588721Y-129247457D02*
X127631578Y-129342695D01*
X127631578Y-129342695D02*
X127674435Y-129533171D01*
X127674435Y-129533171D02*
X127674435Y-129771266D01*
X127674435Y-129771266D02*
X127631578Y-129961742D01*
X127631578Y-129961742D02*
X127588721Y-130056980D01*
X127588721Y-130056980D02*
X127545863Y-130104600D01*
X127545863Y-130104600D02*
X127460149Y-130152219D01*
X127460149Y-130152219D02*
X127374435Y-130152219D01*
X127374435Y-130152219D02*
X127288721Y-130104600D01*
X127288721Y-130104600D02*
X127245863Y-130056980D01*
X127245863Y-130056980D02*
X127203006Y-129961742D01*
X127203006Y-129961742D02*
X127160149Y-129771266D01*
X127160149Y-129771266D02*
X127160149Y-129533171D01*
X127160149Y-129533171D02*
X127203006Y-129342695D01*
X127203006Y-129342695D02*
X127245863Y-129247457D01*
X127245863Y-129247457D02*
X127288721Y-129199838D01*
X127288721Y-129199838D02*
X127374435Y-129152219D01*
X120345863Y-131762163D02*
X120345863Y-130762163D01*
X120345863Y-130762163D02*
X120645863Y-131476448D01*
X120645863Y-131476448D02*
X120945863Y-130762163D01*
X120945863Y-130762163D02*
X120945863Y-131762163D01*
X121760149Y-131762163D02*
X121760149Y-131238353D01*
X121760149Y-131238353D02*
X121717291Y-131143115D01*
X121717291Y-131143115D02*
X121631577Y-131095496D01*
X121631577Y-131095496D02*
X121460149Y-131095496D01*
X121460149Y-131095496D02*
X121374434Y-131143115D01*
X121760149Y-131714544D02*
X121674434Y-131762163D01*
X121674434Y-131762163D02*
X121460149Y-131762163D01*
X121460149Y-131762163D02*
X121374434Y-131714544D01*
X121374434Y-131714544D02*
X121331577Y-131619305D01*
X121331577Y-131619305D02*
X121331577Y-131524067D01*
X121331577Y-131524067D02*
X121374434Y-131428829D01*
X121374434Y-131428829D02*
X121460149Y-131381210D01*
X121460149Y-131381210D02*
X121674434Y-131381210D01*
X121674434Y-131381210D02*
X121760149Y-131333591D01*
X122574435Y-131762163D02*
X122574435Y-130762163D01*
X122574435Y-131714544D02*
X122488720Y-131762163D01*
X122488720Y-131762163D02*
X122317292Y-131762163D01*
X122317292Y-131762163D02*
X122231577Y-131714544D01*
X122231577Y-131714544D02*
X122188720Y-131666924D01*
X122188720Y-131666924D02*
X122145863Y-131571686D01*
X122145863Y-131571686D02*
X122145863Y-131285972D01*
X122145863Y-131285972D02*
X122188720Y-131190734D01*
X122188720Y-131190734D02*
X122231577Y-131143115D01*
X122231577Y-131143115D02*
X122317292Y-131095496D01*
X122317292Y-131095496D02*
X122488720Y-131095496D01*
X122488720Y-131095496D02*
X122574435Y-131143115D01*
X123345863Y-131714544D02*
X123260149Y-131762163D01*
X123260149Y-131762163D02*
X123088721Y-131762163D01*
X123088721Y-131762163D02*
X123003006Y-131714544D01*
X123003006Y-131714544D02*
X122960149Y-131619305D01*
X122960149Y-131619305D02*
X122960149Y-131238353D01*
X122960149Y-131238353D02*
X123003006Y-131143115D01*
X123003006Y-131143115D02*
X123088721Y-131095496D01*
X123088721Y-131095496D02*
X123260149Y-131095496D01*
X123260149Y-131095496D02*
X123345863Y-131143115D01*
X123345863Y-131143115D02*
X123388721Y-131238353D01*
X123388721Y-131238353D02*
X123388721Y-131333591D01*
X123388721Y-131333591D02*
X122960149Y-131428829D01*
X124460149Y-131762163D02*
X124460149Y-130762163D01*
X124460149Y-131143115D02*
X124545864Y-131095496D01*
X124545864Y-131095496D02*
X124717292Y-131095496D01*
X124717292Y-131095496D02*
X124803006Y-131143115D01*
X124803006Y-131143115D02*
X124845864Y-131190734D01*
X124845864Y-131190734D02*
X124888721Y-131285972D01*
X124888721Y-131285972D02*
X124888721Y-131571686D01*
X124888721Y-131571686D02*
X124845864Y-131666924D01*
X124845864Y-131666924D02*
X124803006Y-131714544D01*
X124803006Y-131714544D02*
X124717292Y-131762163D01*
X124717292Y-131762163D02*
X124545864Y-131762163D01*
X124545864Y-131762163D02*
X124460149Y-131714544D01*
X125188721Y-131095496D02*
X125403007Y-131762163D01*
X125617292Y-131095496D02*
X125403007Y-131762163D01*
X125403007Y-131762163D02*
X125317292Y-132000258D01*
X125317292Y-132000258D02*
X125274435Y-132047877D01*
X125274435Y-132047877D02*
X125188721Y-132095496D01*
X120260149Y-132372107D02*
X120474435Y-133372107D01*
X120474435Y-133372107D02*
X120645863Y-132657821D01*
X120645863Y-132657821D02*
X120817292Y-133372107D01*
X120817292Y-133372107D02*
X121031578Y-132372107D01*
X121503006Y-133372107D02*
X121417291Y-133324488D01*
X121417291Y-133324488D02*
X121374434Y-133276868D01*
X121374434Y-133276868D02*
X121331577Y-133181630D01*
X121331577Y-133181630D02*
X121331577Y-132895916D01*
X121331577Y-132895916D02*
X121374434Y-132800678D01*
X121374434Y-132800678D02*
X121417291Y-132753059D01*
X121417291Y-132753059D02*
X121503006Y-132705440D01*
X121503006Y-132705440D02*
X121631577Y-132705440D01*
X121631577Y-132705440D02*
X121717291Y-132753059D01*
X121717291Y-132753059D02*
X121760149Y-132800678D01*
X121760149Y-132800678D02*
X121803006Y-132895916D01*
X121803006Y-132895916D02*
X121803006Y-133181630D01*
X121803006Y-133181630D02*
X121760149Y-133276868D01*
X121760149Y-133276868D02*
X121717291Y-133324488D01*
X121717291Y-133324488D02*
X121631577Y-133372107D01*
X121631577Y-133372107D02*
X121503006Y-133372107D01*
X122188720Y-132705440D02*
X122188720Y-133562583D01*
X122188720Y-133562583D02*
X122145863Y-133657821D01*
X122145863Y-133657821D02*
X122060149Y-133705440D01*
X122060149Y-133705440D02*
X122017292Y-133705440D01*
X122188720Y-132372107D02*
X122145863Y-132419726D01*
X122145863Y-132419726D02*
X122188720Y-132467345D01*
X122188720Y-132467345D02*
X122231577Y-132419726D01*
X122231577Y-132419726D02*
X122188720Y-132372107D01*
X122188720Y-132372107D02*
X122188720Y-132467345D01*
X123003006Y-133324488D02*
X122917291Y-133372107D01*
X122917291Y-133372107D02*
X122745863Y-133372107D01*
X122745863Y-133372107D02*
X122660148Y-133324488D01*
X122660148Y-133324488D02*
X122617291Y-133276868D01*
X122617291Y-133276868D02*
X122574434Y-133181630D01*
X122574434Y-133181630D02*
X122574434Y-132895916D01*
X122574434Y-132895916D02*
X122617291Y-132800678D01*
X122617291Y-132800678D02*
X122660148Y-132753059D01*
X122660148Y-132753059D02*
X122745863Y-132705440D01*
X122745863Y-132705440D02*
X122917291Y-132705440D01*
X122917291Y-132705440D02*
X123003006Y-132753059D01*
X123388720Y-133372107D02*
X123388720Y-132705440D01*
X123388720Y-132372107D02*
X123345863Y-132419726D01*
X123345863Y-132419726D02*
X123388720Y-132467345D01*
X123388720Y-132467345D02*
X123431577Y-132419726D01*
X123431577Y-132419726D02*
X123388720Y-132372107D01*
X123388720Y-132372107D02*
X123388720Y-132467345D01*
X124160148Y-133324488D02*
X124074434Y-133372107D01*
X124074434Y-133372107D02*
X123903006Y-133372107D01*
X123903006Y-133372107D02*
X123817291Y-133324488D01*
X123817291Y-133324488D02*
X123774434Y-133229249D01*
X123774434Y-133229249D02*
X123774434Y-132848297D01*
X123774434Y-132848297D02*
X123817291Y-132753059D01*
X123817291Y-132753059D02*
X123903006Y-132705440D01*
X123903006Y-132705440D02*
X124074434Y-132705440D01*
X124074434Y-132705440D02*
X124160148Y-132753059D01*
X124160148Y-132753059D02*
X124203006Y-132848297D01*
X124203006Y-132848297D02*
X124203006Y-132943535D01*
X124203006Y-132943535D02*
X123774434Y-133038773D01*
X124974435Y-133324488D02*
X124888720Y-133372107D01*
X124888720Y-133372107D02*
X124717292Y-133372107D01*
X124717292Y-133372107D02*
X124631577Y-133324488D01*
X124631577Y-133324488D02*
X124588720Y-133276868D01*
X124588720Y-133276868D02*
X124545863Y-133181630D01*
X124545863Y-133181630D02*
X124545863Y-132895916D01*
X124545863Y-132895916D02*
X124588720Y-132800678D01*
X124588720Y-132800678D02*
X124631577Y-132753059D01*
X124631577Y-132753059D02*
X124717292Y-132705440D01*
X124717292Y-132705440D02*
X124888720Y-132705440D01*
X124888720Y-132705440D02*
X124974435Y-132753059D01*
X125360149Y-133372107D02*
X125360149Y-132372107D01*
X125745864Y-133372107D02*
X125745864Y-132848297D01*
X125745864Y-132848297D02*
X125703006Y-132753059D01*
X125703006Y-132753059D02*
X125617292Y-132705440D01*
X125617292Y-132705440D02*
X125488721Y-132705440D01*
X125488721Y-132705440D02*
X125403006Y-132753059D01*
X125403006Y-132753059D02*
X125360149Y-132800678D01*
X126817292Y-133324488D02*
X126945864Y-133372107D01*
X126945864Y-133372107D02*
X127160149Y-133372107D01*
X127160149Y-133372107D02*
X127245864Y-133324488D01*
X127245864Y-133324488D02*
X127288721Y-133276868D01*
X127288721Y-133276868D02*
X127331578Y-133181630D01*
X127331578Y-133181630D02*
X127331578Y-133086392D01*
X127331578Y-133086392D02*
X127288721Y-132991154D01*
X127288721Y-132991154D02*
X127245864Y-132943535D01*
X127245864Y-132943535D02*
X127160149Y-132895916D01*
X127160149Y-132895916D02*
X126988721Y-132848297D01*
X126988721Y-132848297D02*
X126903006Y-132800678D01*
X126903006Y-132800678D02*
X126860149Y-132753059D01*
X126860149Y-132753059D02*
X126817292Y-132657821D01*
X126817292Y-132657821D02*
X126817292Y-132562583D01*
X126817292Y-132562583D02*
X126860149Y-132467345D01*
X126860149Y-132467345D02*
X126903006Y-132419726D01*
X126903006Y-132419726D02*
X126988721Y-132372107D01*
X126988721Y-132372107D02*
X127203006Y-132372107D01*
X127203006Y-132372107D02*
X127331578Y-132419726D01*
X127631578Y-132705440D02*
X128103007Y-132705440D01*
X128103007Y-132705440D02*
X127631578Y-133372107D01*
X127631578Y-133372107D02*
X128103007Y-133372107D01*
X128831578Y-133372107D02*
X128831578Y-132848297D01*
X128831578Y-132848297D02*
X128788720Y-132753059D01*
X128788720Y-132753059D02*
X128703006Y-132705440D01*
X128703006Y-132705440D02*
X128531578Y-132705440D01*
X128531578Y-132705440D02*
X128445863Y-132753059D01*
X128831578Y-133324488D02*
X128745863Y-133372107D01*
X128745863Y-133372107D02*
X128531578Y-133372107D01*
X128531578Y-133372107D02*
X128445863Y-133324488D01*
X128445863Y-133324488D02*
X128403006Y-133229249D01*
X128403006Y-133229249D02*
X128403006Y-133134011D01*
X128403006Y-133134011D02*
X128445863Y-133038773D01*
X128445863Y-133038773D02*
X128531578Y-132991154D01*
X128531578Y-132991154D02*
X128745863Y-132991154D01*
X128745863Y-132991154D02*
X128831578Y-132943535D01*
X129131578Y-132705440D02*
X129474435Y-132705440D01*
X129260149Y-133372107D02*
X129260149Y-132514964D01*
X129260149Y-132514964D02*
X129303006Y-132419726D01*
X129303006Y-132419726D02*
X129388721Y-132372107D01*
X129388721Y-132372107D02*
X129474435Y-132372107D01*
X129774435Y-133372107D02*
X129774435Y-132705440D01*
X129774435Y-132895916D02*
X129817292Y-132800678D01*
X129817292Y-132800678D02*
X129860150Y-132753059D01*
X129860150Y-132753059D02*
X129945864Y-132705440D01*
X129945864Y-132705440D02*
X130031578Y-132705440D01*
X130717293Y-133372107D02*
X130717293Y-132848297D01*
X130717293Y-132848297D02*
X130674435Y-132753059D01*
X130674435Y-132753059D02*
X130588721Y-132705440D01*
X130588721Y-132705440D02*
X130417293Y-132705440D01*
X130417293Y-132705440D02*
X130331578Y-132753059D01*
X130717293Y-133324488D02*
X130631578Y-133372107D01*
X130631578Y-133372107D02*
X130417293Y-133372107D01*
X130417293Y-133372107D02*
X130331578Y-133324488D01*
X130331578Y-133324488D02*
X130288721Y-133229249D01*
X130288721Y-133229249D02*
X130288721Y-133134011D01*
X130288721Y-133134011D02*
X130331578Y-133038773D01*
X130331578Y-133038773D02*
X130417293Y-132991154D01*
X130417293Y-132991154D02*
X130631578Y-132991154D01*
X130631578Y-132991154D02*
X130717293Y-132943535D01*
X131145864Y-132705440D02*
X131145864Y-133372107D01*
X131145864Y-132800678D02*
X131188721Y-132753059D01*
X131188721Y-132753059D02*
X131274436Y-132705440D01*
X131274436Y-132705440D02*
X131403007Y-132705440D01*
X131403007Y-132705440D02*
X131488721Y-132753059D01*
X131488721Y-132753059D02*
X131531579Y-132848297D01*
X131531579Y-132848297D02*
X131531579Y-133372107D01*
X131403007Y-132324488D02*
X131274436Y-132467345D01*
X131917293Y-133324488D02*
X132003007Y-133372107D01*
X132003007Y-133372107D02*
X132174436Y-133372107D01*
X132174436Y-133372107D02*
X132260150Y-133324488D01*
X132260150Y-133324488D02*
X132303007Y-133229249D01*
X132303007Y-133229249D02*
X132303007Y-133181630D01*
X132303007Y-133181630D02*
X132260150Y-133086392D01*
X132260150Y-133086392D02*
X132174436Y-133038773D01*
X132174436Y-133038773D02*
X132045865Y-133038773D01*
X132045865Y-133038773D02*
X131960150Y-132991154D01*
X131960150Y-132991154D02*
X131917293Y-132895916D01*
X131917293Y-132895916D02*
X131917293Y-132848297D01*
X131917293Y-132848297D02*
X131960150Y-132753059D01*
X131960150Y-132753059D02*
X132045865Y-132705440D01*
X132045865Y-132705440D02*
X132174436Y-132705440D01*
X132174436Y-132705440D02*
X132260150Y-132753059D01*
X132688721Y-133372107D02*
X132688721Y-132372107D01*
X132774436Y-132991154D02*
X133031578Y-133372107D01*
X133031578Y-132705440D02*
X132688721Y-133086392D01*
X133417292Y-133372107D02*
X133417292Y-132705440D01*
X133417292Y-132372107D02*
X133374435Y-132419726D01*
X133374435Y-132419726D02*
X133417292Y-132467345D01*
X133417292Y-132467345D02*
X133460149Y-132419726D01*
X133460149Y-132419726D02*
X133417292Y-132372107D01*
X133417292Y-132372107D02*
X133417292Y-132467345D01*
D12*
X169822228Y-98327856D02*
X169869847Y-98184999D01*
X169869847Y-98184999D02*
X169869847Y-97946904D01*
X169869847Y-97946904D02*
X169822228Y-97851666D01*
X169822228Y-97851666D02*
X169774608Y-97804047D01*
X169774608Y-97804047D02*
X169679370Y-97756428D01*
X169679370Y-97756428D02*
X169584132Y-97756428D01*
X169584132Y-97756428D02*
X169488894Y-97804047D01*
X169488894Y-97804047D02*
X169441275Y-97851666D01*
X169441275Y-97851666D02*
X169393656Y-97946904D01*
X169393656Y-97946904D02*
X169346037Y-98137380D01*
X169346037Y-98137380D02*
X169298418Y-98232618D01*
X169298418Y-98232618D02*
X169250799Y-98280237D01*
X169250799Y-98280237D02*
X169155561Y-98327856D01*
X169155561Y-98327856D02*
X169060323Y-98327856D01*
X169060323Y-98327856D02*
X168965085Y-98280237D01*
X168965085Y-98280237D02*
X168917466Y-98232618D01*
X168917466Y-98232618D02*
X168869847Y-98137380D01*
X168869847Y-98137380D02*
X168869847Y-97899285D01*
X168869847Y-97899285D02*
X168917466Y-97756428D01*
X169346037Y-97327856D02*
X169346037Y-96994523D01*
X169869847Y-96851666D02*
X169869847Y-97327856D01*
X169869847Y-97327856D02*
X168869847Y-97327856D01*
X168869847Y-97327856D02*
X168869847Y-96851666D01*
X169869847Y-95946904D02*
X169869847Y-96423094D01*
X169869847Y-96423094D02*
X168869847Y-96423094D01*
X171479791Y-97827857D02*
X171479791Y-98304047D01*
X171479791Y-98304047D02*
X170479791Y-98304047D01*
X170955981Y-97494523D02*
X170955981Y-97161190D01*
X171479791Y-97018333D02*
X171479791Y-97494523D01*
X171479791Y-97494523D02*
X170479791Y-97494523D01*
X170479791Y-97494523D02*
X170479791Y-97018333D01*
X171479791Y-96589761D02*
X170479791Y-96589761D01*
X170479791Y-96589761D02*
X170479791Y-96351666D01*
X170479791Y-96351666D02*
X170527410Y-96208809D01*
X170527410Y-96208809D02*
X170622648Y-96113571D01*
X170622648Y-96113571D02*
X170717886Y-96065952D01*
X170717886Y-96065952D02*
X170908362Y-96018333D01*
X170908362Y-96018333D02*
X171051219Y-96018333D01*
X171051219Y-96018333D02*
X171241695Y-96065952D01*
X171241695Y-96065952D02*
X171336933Y-96113571D01*
X171336933Y-96113571D02*
X171432172Y-96208809D01*
X171432172Y-96208809D02*
X171479791Y-96351666D01*
X171479791Y-96351666D02*
X171479791Y-96589761D01*
X172407200Y-109814285D02*
X172454819Y-109671428D01*
X172454819Y-109671428D02*
X172454819Y-109433333D01*
X172454819Y-109433333D02*
X172407200Y-109338095D01*
X172407200Y-109338095D02*
X172359580Y-109290476D01*
X172359580Y-109290476D02*
X172264342Y-109242857D01*
X172264342Y-109242857D02*
X172169104Y-109242857D01*
X172169104Y-109242857D02*
X172073866Y-109290476D01*
X172073866Y-109290476D02*
X172026247Y-109338095D01*
X172026247Y-109338095D02*
X171978628Y-109433333D01*
X171978628Y-109433333D02*
X171931009Y-109623809D01*
X171931009Y-109623809D02*
X171883390Y-109719047D01*
X171883390Y-109719047D02*
X171835771Y-109766666D01*
X171835771Y-109766666D02*
X171740533Y-109814285D01*
X171740533Y-109814285D02*
X171645295Y-109814285D01*
X171645295Y-109814285D02*
X171550057Y-109766666D01*
X171550057Y-109766666D02*
X171502438Y-109719047D01*
X171502438Y-109719047D02*
X171454819Y-109623809D01*
X171454819Y-109623809D02*
X171454819Y-109385714D01*
X171454819Y-109385714D02*
X171502438Y-109242857D01*
X172454819Y-108814285D02*
X171454819Y-108814285D01*
X171454819Y-108814285D02*
X171454819Y-108576190D01*
X171454819Y-108576190D02*
X171502438Y-108433333D01*
X171502438Y-108433333D02*
X171597676Y-108338095D01*
X171597676Y-108338095D02*
X171692914Y-108290476D01*
X171692914Y-108290476D02*
X171883390Y-108242857D01*
X171883390Y-108242857D02*
X172026247Y-108242857D01*
X172026247Y-108242857D02*
X172216723Y-108290476D01*
X172216723Y-108290476D02*
X172311961Y-108338095D01*
X172311961Y-108338095D02*
X172407200Y-108433333D01*
X172407200Y-108433333D02*
X172454819Y-108576190D01*
X172454819Y-108576190D02*
X172454819Y-108814285D01*
X172169104Y-107861904D02*
X172169104Y-107385714D01*
X172454819Y-107957142D02*
X171454819Y-107623809D01*
X171454819Y-107623809D02*
X172454819Y-107290476D01*
X171597438Y-103346904D02*
X171549819Y-103442142D01*
X171549819Y-103442142D02*
X171549819Y-103584999D01*
X171549819Y-103584999D02*
X171597438Y-103727856D01*
X171597438Y-103727856D02*
X171692676Y-103823094D01*
X171692676Y-103823094D02*
X171787914Y-103870713D01*
X171787914Y-103870713D02*
X171978390Y-103918332D01*
X171978390Y-103918332D02*
X172121247Y-103918332D01*
X172121247Y-103918332D02*
X172311723Y-103870713D01*
X172311723Y-103870713D02*
X172406961Y-103823094D01*
X172406961Y-103823094D02*
X172502200Y-103727856D01*
X172502200Y-103727856D02*
X172549819Y-103584999D01*
X172549819Y-103584999D02*
X172549819Y-103489761D01*
X172549819Y-103489761D02*
X172502200Y-103346904D01*
X172502200Y-103346904D02*
X172454580Y-103299285D01*
X172454580Y-103299285D02*
X172121247Y-103299285D01*
X172121247Y-103299285D02*
X172121247Y-103489761D01*
X172549819Y-102870713D02*
X171549819Y-102870713D01*
X171549819Y-102870713D02*
X172549819Y-102299285D01*
X172549819Y-102299285D02*
X171549819Y-102299285D01*
X172549819Y-101823094D02*
X171549819Y-101823094D01*
X171549819Y-101823094D02*
X171549819Y-101584999D01*
X171549819Y-101584999D02*
X171597438Y-101442142D01*
X171597438Y-101442142D02*
X171692676Y-101346904D01*
X171692676Y-101346904D02*
X171787914Y-101299285D01*
X171787914Y-101299285D02*
X171978390Y-101251666D01*
X171978390Y-101251666D02*
X172121247Y-101251666D01*
X172121247Y-101251666D02*
X172311723Y-101299285D01*
X172311723Y-101299285D02*
X172406961Y-101346904D01*
X172406961Y-101346904D02*
X172502200Y-101442142D01*
X172502200Y-101442142D02*
X172549819Y-101584999D01*
X172549819Y-101584999D02*
X172549819Y-101823094D01*
X173877200Y-106850475D02*
X173924819Y-106707618D01*
X173924819Y-106707618D02*
X173924819Y-106469523D01*
X173924819Y-106469523D02*
X173877200Y-106374285D01*
X173877200Y-106374285D02*
X173829580Y-106326666D01*
X173829580Y-106326666D02*
X173734342Y-106279047D01*
X173734342Y-106279047D02*
X173639104Y-106279047D01*
X173639104Y-106279047D02*
X173543866Y-106326666D01*
X173543866Y-106326666D02*
X173496247Y-106374285D01*
X173496247Y-106374285D02*
X173448628Y-106469523D01*
X173448628Y-106469523D02*
X173401009Y-106659999D01*
X173401009Y-106659999D02*
X173353390Y-106755237D01*
X173353390Y-106755237D02*
X173305771Y-106802856D01*
X173305771Y-106802856D02*
X173210533Y-106850475D01*
X173210533Y-106850475D02*
X173115295Y-106850475D01*
X173115295Y-106850475D02*
X173020057Y-106802856D01*
X173020057Y-106802856D02*
X172972438Y-106755237D01*
X172972438Y-106755237D02*
X172924819Y-106659999D01*
X172924819Y-106659999D02*
X172924819Y-106421904D01*
X172924819Y-106421904D02*
X172972438Y-106279047D01*
X173829580Y-105279047D02*
X173877200Y-105326666D01*
X173877200Y-105326666D02*
X173924819Y-105469523D01*
X173924819Y-105469523D02*
X173924819Y-105564761D01*
X173924819Y-105564761D02*
X173877200Y-105707618D01*
X173877200Y-105707618D02*
X173781961Y-105802856D01*
X173781961Y-105802856D02*
X173686723Y-105850475D01*
X173686723Y-105850475D02*
X173496247Y-105898094D01*
X173496247Y-105898094D02*
X173353390Y-105898094D01*
X173353390Y-105898094D02*
X173162914Y-105850475D01*
X173162914Y-105850475D02*
X173067676Y-105802856D01*
X173067676Y-105802856D02*
X172972438Y-105707618D01*
X172972438Y-105707618D02*
X172924819Y-105564761D01*
X172924819Y-105564761D02*
X172924819Y-105469523D01*
X172924819Y-105469523D02*
X172972438Y-105326666D01*
X172972438Y-105326666D02*
X173020057Y-105279047D01*
X173924819Y-104374285D02*
X173924819Y-104850475D01*
X173924819Y-104850475D02*
X172924819Y-104850475D01*
X173124819Y-102048094D02*
X173124819Y-101429047D01*
X173124819Y-101429047D02*
X173505771Y-101762380D01*
X173505771Y-101762380D02*
X173505771Y-101619523D01*
X173505771Y-101619523D02*
X173553390Y-101524285D01*
X173553390Y-101524285D02*
X173601009Y-101476666D01*
X173601009Y-101476666D02*
X173696247Y-101429047D01*
X173696247Y-101429047D02*
X173934342Y-101429047D01*
X173934342Y-101429047D02*
X174029580Y-101476666D01*
X174029580Y-101476666D02*
X174077200Y-101524285D01*
X174077200Y-101524285D02*
X174124819Y-101619523D01*
X174124819Y-101619523D02*
X174124819Y-101905237D01*
X174124819Y-101905237D02*
X174077200Y-102000475D01*
X174077200Y-102000475D02*
X174029580Y-102048094D01*
X173124819Y-101143332D02*
X174124819Y-100809999D01*
X174124819Y-100809999D02*
X173124819Y-100476666D01*
X173124819Y-100238570D02*
X173124819Y-99619523D01*
X173124819Y-99619523D02*
X173505771Y-99952856D01*
X173505771Y-99952856D02*
X173505771Y-99809999D01*
X173505771Y-99809999D02*
X173553390Y-99714761D01*
X173553390Y-99714761D02*
X173601009Y-99667142D01*
X173601009Y-99667142D02*
X173696247Y-99619523D01*
X173696247Y-99619523D02*
X173934342Y-99619523D01*
X173934342Y-99619523D02*
X174029580Y-99667142D01*
X174029580Y-99667142D02*
X174077200Y-99714761D01*
X174077200Y-99714761D02*
X174124819Y-99809999D01*
X174124819Y-99809999D02*
X174124819Y-100095713D01*
X174124819Y-100095713D02*
X174077200Y-100190951D01*
X174077200Y-100190951D02*
X174029580Y-100238570D01*
X160866666Y-130999819D02*
X160866666Y-131714104D01*
X160866666Y-131714104D02*
X160819047Y-131856961D01*
X160819047Y-131856961D02*
X160723809Y-131952200D01*
X160723809Y-131952200D02*
X160580952Y-131999819D01*
X160580952Y-131999819D02*
X160485714Y-131999819D01*
X161390476Y-131999819D02*
X161580952Y-131999819D01*
X161580952Y-131999819D02*
X161676190Y-131952200D01*
X161676190Y-131952200D02*
X161723809Y-131904580D01*
X161723809Y-131904580D02*
X161819047Y-131761723D01*
X161819047Y-131761723D02*
X161866666Y-131571247D01*
X161866666Y-131571247D02*
X161866666Y-131190295D01*
X161866666Y-131190295D02*
X161819047Y-131095057D01*
X161819047Y-131095057D02*
X161771428Y-131047438D01*
X161771428Y-131047438D02*
X161676190Y-130999819D01*
X161676190Y-130999819D02*
X161485714Y-130999819D01*
X161485714Y-130999819D02*
X161390476Y-131047438D01*
X161390476Y-131047438D02*
X161342857Y-131095057D01*
X161342857Y-131095057D02*
X161295238Y-131190295D01*
X161295238Y-131190295D02*
X161295238Y-131428390D01*
X161295238Y-131428390D02*
X161342857Y-131523628D01*
X161342857Y-131523628D02*
X161390476Y-131571247D01*
X161390476Y-131571247D02*
X161485714Y-131618866D01*
X161485714Y-131618866D02*
X161676190Y-131618866D01*
X161676190Y-131618866D02*
X161771428Y-131571247D01*
X161771428Y-131571247D02*
X161819047Y-131523628D01*
X161819047Y-131523628D02*
X161866666Y-131428390D01*
X164234819Y-112233333D02*
X164949104Y-112233333D01*
X164949104Y-112233333D02*
X165091961Y-112280952D01*
X165091961Y-112280952D02*
X165187200Y-112376190D01*
X165187200Y-112376190D02*
X165234819Y-112519047D01*
X165234819Y-112519047D02*
X165234819Y-112614285D01*
X164234819Y-111852380D02*
X164234819Y-111185714D01*
X164234819Y-111185714D02*
X165234819Y-111614285D01*
X141166666Y-130999819D02*
X141166666Y-131714104D01*
X141166666Y-131714104D02*
X141119047Y-131856961D01*
X141119047Y-131856961D02*
X141023809Y-131952200D01*
X141023809Y-131952200D02*
X140880952Y-131999819D01*
X140880952Y-131999819D02*
X140785714Y-131999819D01*
X142071428Y-130999819D02*
X141880952Y-130999819D01*
X141880952Y-130999819D02*
X141785714Y-131047438D01*
X141785714Y-131047438D02*
X141738095Y-131095057D01*
X141738095Y-131095057D02*
X141642857Y-131237914D01*
X141642857Y-131237914D02*
X141595238Y-131428390D01*
X141595238Y-131428390D02*
X141595238Y-131809342D01*
X141595238Y-131809342D02*
X141642857Y-131904580D01*
X141642857Y-131904580D02*
X141690476Y-131952200D01*
X141690476Y-131952200D02*
X141785714Y-131999819D01*
X141785714Y-131999819D02*
X141976190Y-131999819D01*
X141976190Y-131999819D02*
X142071428Y-131952200D01*
X142071428Y-131952200D02*
X142119047Y-131904580D01*
X142119047Y-131904580D02*
X142166666Y-131809342D01*
X142166666Y-131809342D02*
X142166666Y-131571247D01*
X142166666Y-131571247D02*
X142119047Y-131476009D01*
X142119047Y-131476009D02*
X142071428Y-131428390D01*
X142071428Y-131428390D02*
X141976190Y-131380771D01*
X141976190Y-131380771D02*
X141785714Y-131380771D01*
X141785714Y-131380771D02*
X141690476Y-131428390D01*
X141690476Y-131428390D02*
X141642857Y-131476009D01*
X141642857Y-131476009D02*
X141595238Y-131571247D01*
X116758095Y-119204819D02*
X116758095Y-120014342D01*
X116758095Y-120014342D02*
X116805714Y-120109580D01*
X116805714Y-120109580D02*
X116853333Y-120157200D01*
X116853333Y-120157200D02*
X116948571Y-120204819D01*
X116948571Y-120204819D02*
X117139047Y-120204819D01*
X117139047Y-120204819D02*
X117234285Y-120157200D01*
X117234285Y-120157200D02*
X117281904Y-120109580D01*
X117281904Y-120109580D02*
X117329523Y-120014342D01*
X117329523Y-120014342D02*
X117329523Y-119204819D01*
X118234285Y-119204819D02*
X118043809Y-119204819D01*
X118043809Y-119204819D02*
X117948571Y-119252438D01*
X117948571Y-119252438D02*
X117900952Y-119300057D01*
X117900952Y-119300057D02*
X117805714Y-119442914D01*
X117805714Y-119442914D02*
X117758095Y-119633390D01*
X117758095Y-119633390D02*
X117758095Y-120014342D01*
X117758095Y-120014342D02*
X117805714Y-120109580D01*
X117805714Y-120109580D02*
X117853333Y-120157200D01*
X117853333Y-120157200D02*
X117948571Y-120204819D01*
X117948571Y-120204819D02*
X118139047Y-120204819D01*
X118139047Y-120204819D02*
X118234285Y-120157200D01*
X118234285Y-120157200D02*
X118281904Y-120109580D01*
X118281904Y-120109580D02*
X118329523Y-120014342D01*
X118329523Y-120014342D02*
X118329523Y-119776247D01*
X118329523Y-119776247D02*
X118281904Y-119681009D01*
X118281904Y-119681009D02*
X118234285Y-119633390D01*
X118234285Y-119633390D02*
X118139047Y-119585771D01*
X118139047Y-119585771D02*
X117948571Y-119585771D01*
X117948571Y-119585771D02*
X117853333Y-119633390D01*
X117853333Y-119633390D02*
X117805714Y-119681009D01*
X117805714Y-119681009D02*
X117758095Y-119776247D01*
X110366666Y-137554819D02*
X110366666Y-138269104D01*
X110366666Y-138269104D02*
X110319047Y-138411961D01*
X110319047Y-138411961D02*
X110223809Y-138507200D01*
X110223809Y-138507200D02*
X110080952Y-138554819D01*
X110080952Y-138554819D02*
X109985714Y-138554819D01*
X111319047Y-137554819D02*
X110842857Y-137554819D01*
X110842857Y-137554819D02*
X110795238Y-138031009D01*
X110795238Y-138031009D02*
X110842857Y-137983390D01*
X110842857Y-137983390D02*
X110938095Y-137935771D01*
X110938095Y-137935771D02*
X111176190Y-137935771D01*
X111176190Y-137935771D02*
X111271428Y-137983390D01*
X111271428Y-137983390D02*
X111319047Y-138031009D01*
X111319047Y-138031009D02*
X111366666Y-138126247D01*
X111366666Y-138126247D02*
X111366666Y-138364342D01*
X111366666Y-138364342D02*
X111319047Y-138459580D01*
X111319047Y-138459580D02*
X111271428Y-138507200D01*
X111271428Y-138507200D02*
X111176190Y-138554819D01*
X111176190Y-138554819D02*
X110938095Y-138554819D01*
X110938095Y-138554819D02*
X110842857Y-138507200D01*
X110842857Y-138507200D02*
X110795238Y-138459580D01*
X106319048Y-124773866D02*
X107080953Y-124773866D01*
X116473344Y-126322022D02*
X117616202Y-126322022D01*
X117044773Y-126893450D02*
X117044773Y-125750593D01*
X101568095Y-121354819D02*
X101568095Y-122164342D01*
X101568095Y-122164342D02*
X101615714Y-122259580D01*
X101615714Y-122259580D02*
X101663333Y-122307200D01*
X101663333Y-122307200D02*
X101758571Y-122354819D01*
X101758571Y-122354819D02*
X101949047Y-122354819D01*
X101949047Y-122354819D02*
X102044285Y-122307200D01*
X102044285Y-122307200D02*
X102091904Y-122259580D01*
X102091904Y-122259580D02*
X102139523Y-122164342D01*
X102139523Y-122164342D02*
X102139523Y-121354819D01*
X102520476Y-121354819D02*
X103139523Y-121354819D01*
X103139523Y-121354819D02*
X102806190Y-121735771D01*
X102806190Y-121735771D02*
X102949047Y-121735771D01*
X102949047Y-121735771D02*
X103044285Y-121783390D01*
X103044285Y-121783390D02*
X103091904Y-121831009D01*
X103091904Y-121831009D02*
X103139523Y-121926247D01*
X103139523Y-121926247D02*
X103139523Y-122164342D01*
X103139523Y-122164342D02*
X103091904Y-122259580D01*
X103091904Y-122259580D02*
X103044285Y-122307200D01*
X103044285Y-122307200D02*
X102949047Y-122354819D01*
X102949047Y-122354819D02*
X102663333Y-122354819D01*
X102663333Y-122354819D02*
X102568095Y-122307200D01*
X102568095Y-122307200D02*
X102520476Y-122259580D01*
X84438095Y-90154819D02*
X84438095Y-89154819D01*
X84438095Y-89631009D02*
X85009523Y-89631009D01*
X85009523Y-90154819D02*
X85009523Y-89154819D01*
X86009523Y-90154819D02*
X85438095Y-90154819D01*
X85723809Y-90154819D02*
X85723809Y-89154819D01*
X85723809Y-89154819D02*
X85628571Y-89297676D01*
X85628571Y-89297676D02*
X85533333Y-89392914D01*
X85533333Y-89392914D02*
X85438095Y-89440533D01*
X84833333Y-123059580D02*
X84785714Y-123107200D01*
X84785714Y-123107200D02*
X84642857Y-123154819D01*
X84642857Y-123154819D02*
X84547619Y-123154819D01*
X84547619Y-123154819D02*
X84404762Y-123107200D01*
X84404762Y-123107200D02*
X84309524Y-123011961D01*
X84309524Y-123011961D02*
X84261905Y-122916723D01*
X84261905Y-122916723D02*
X84214286Y-122726247D01*
X84214286Y-122726247D02*
X84214286Y-122583390D01*
X84214286Y-122583390D02*
X84261905Y-122392914D01*
X84261905Y-122392914D02*
X84309524Y-122297676D01*
X84309524Y-122297676D02*
X84404762Y-122202438D01*
X84404762Y-122202438D02*
X84547619Y-122154819D01*
X84547619Y-122154819D02*
X84642857Y-122154819D01*
X84642857Y-122154819D02*
X84785714Y-122202438D01*
X84785714Y-122202438D02*
X84833333Y-122250057D01*
X85309524Y-123154819D02*
X85500000Y-123154819D01*
X85500000Y-123154819D02*
X85595238Y-123107200D01*
X85595238Y-123107200D02*
X85642857Y-123059580D01*
X85642857Y-123059580D02*
X85738095Y-122916723D01*
X85738095Y-122916723D02*
X85785714Y-122726247D01*
X85785714Y-122726247D02*
X85785714Y-122345295D01*
X85785714Y-122345295D02*
X85738095Y-122250057D01*
X85738095Y-122250057D02*
X85690476Y-122202438D01*
X85690476Y-122202438D02*
X85595238Y-122154819D01*
X85595238Y-122154819D02*
X85404762Y-122154819D01*
X85404762Y-122154819D02*
X85309524Y-122202438D01*
X85309524Y-122202438D02*
X85261905Y-122250057D01*
X85261905Y-122250057D02*
X85214286Y-122345295D01*
X85214286Y-122345295D02*
X85214286Y-122583390D01*
X85214286Y-122583390D02*
X85261905Y-122678628D01*
X85261905Y-122678628D02*
X85309524Y-122726247D01*
X85309524Y-122726247D02*
X85404762Y-122773866D01*
X85404762Y-122773866D02*
X85595238Y-122773866D01*
X85595238Y-122773866D02*
X85690476Y-122726247D01*
X85690476Y-122726247D02*
X85738095Y-122678628D01*
X85738095Y-122678628D02*
X85785714Y-122583390D01*
X153730057Y-125845238D02*
X153682438Y-125940476D01*
X153682438Y-125940476D02*
X153587200Y-126035714D01*
X153587200Y-126035714D02*
X153444342Y-126178571D01*
X153444342Y-126178571D02*
X153396723Y-126273809D01*
X153396723Y-126273809D02*
X153396723Y-126369047D01*
X153634819Y-126321428D02*
X153587200Y-126416666D01*
X153587200Y-126416666D02*
X153491961Y-126511904D01*
X153491961Y-126511904D02*
X153301485Y-126559523D01*
X153301485Y-126559523D02*
X152968152Y-126559523D01*
X152968152Y-126559523D02*
X152777676Y-126511904D01*
X152777676Y-126511904D02*
X152682438Y-126416666D01*
X152682438Y-126416666D02*
X152634819Y-126321428D01*
X152634819Y-126321428D02*
X152634819Y-126130952D01*
X152634819Y-126130952D02*
X152682438Y-126035714D01*
X152682438Y-126035714D02*
X152777676Y-125940476D01*
X152777676Y-125940476D02*
X152968152Y-125892857D01*
X152968152Y-125892857D02*
X153301485Y-125892857D01*
X153301485Y-125892857D02*
X153491961Y-125940476D01*
X153491961Y-125940476D02*
X153587200Y-126035714D01*
X153587200Y-126035714D02*
X153634819Y-126130952D01*
X153634819Y-126130952D02*
X153634819Y-126321428D01*
X153634819Y-124940476D02*
X153634819Y-125511904D01*
X153634819Y-125226190D02*
X152634819Y-125226190D01*
X152634819Y-125226190D02*
X152777676Y-125321428D01*
X152777676Y-125321428D02*
X152872914Y-125416666D01*
X152872914Y-125416666D02*
X152920533Y-125511904D01*
X128159580Y-108142857D02*
X128207200Y-108190476D01*
X128207200Y-108190476D02*
X128254819Y-108333333D01*
X128254819Y-108333333D02*
X128254819Y-108428571D01*
X128254819Y-108428571D02*
X128207200Y-108571428D01*
X128207200Y-108571428D02*
X128111961Y-108666666D01*
X128111961Y-108666666D02*
X128016723Y-108714285D01*
X128016723Y-108714285D02*
X127826247Y-108761904D01*
X127826247Y-108761904D02*
X127683390Y-108761904D01*
X127683390Y-108761904D02*
X127492914Y-108714285D01*
X127492914Y-108714285D02*
X127397676Y-108666666D01*
X127397676Y-108666666D02*
X127302438Y-108571428D01*
X127302438Y-108571428D02*
X127254819Y-108428571D01*
X127254819Y-108428571D02*
X127254819Y-108333333D01*
X127254819Y-108333333D02*
X127302438Y-108190476D01*
X127302438Y-108190476D02*
X127350057Y-108142857D01*
X128254819Y-107190476D02*
X128254819Y-107761904D01*
X128254819Y-107476190D02*
X127254819Y-107476190D01*
X127254819Y-107476190D02*
X127397676Y-107571428D01*
X127397676Y-107571428D02*
X127492914Y-107666666D01*
X127492914Y-107666666D02*
X127540533Y-107761904D01*
X127350057Y-106809523D02*
X127302438Y-106761904D01*
X127302438Y-106761904D02*
X127254819Y-106666666D01*
X127254819Y-106666666D02*
X127254819Y-106428571D01*
X127254819Y-106428571D02*
X127302438Y-106333333D01*
X127302438Y-106333333D02*
X127350057Y-106285714D01*
X127350057Y-106285714D02*
X127445295Y-106238095D01*
X127445295Y-106238095D02*
X127540533Y-106238095D01*
X127540533Y-106238095D02*
X127683390Y-106285714D01*
X127683390Y-106285714D02*
X128254819Y-106857142D01*
X128254819Y-106857142D02*
X128254819Y-106238095D01*
X93666666Y-137254819D02*
X93666666Y-137969104D01*
X93666666Y-137969104D02*
X93619047Y-138111961D01*
X93619047Y-138111961D02*
X93523809Y-138207200D01*
X93523809Y-138207200D02*
X93380952Y-138254819D01*
X93380952Y-138254819D02*
X93285714Y-138254819D01*
X94571428Y-137588152D02*
X94571428Y-138254819D01*
X94333333Y-137207200D02*
X94095238Y-137921485D01*
X94095238Y-137921485D02*
X94714285Y-137921485D01*
X90828571Y-123814700D02*
X91971429Y-123814700D01*
X91400000Y-124386128D02*
X91400000Y-123243271D01*
X97328571Y-124114700D02*
X98471429Y-124114700D01*
X144988095Y-114704819D02*
X144988095Y-115514342D01*
X144988095Y-115514342D02*
X145035714Y-115609580D01*
X145035714Y-115609580D02*
X145083333Y-115657200D01*
X145083333Y-115657200D02*
X145178571Y-115704819D01*
X145178571Y-115704819D02*
X145369047Y-115704819D01*
X145369047Y-115704819D02*
X145464285Y-115657200D01*
X145464285Y-115657200D02*
X145511904Y-115609580D01*
X145511904Y-115609580D02*
X145559523Y-115514342D01*
X145559523Y-115514342D02*
X145559523Y-114704819D01*
X146559523Y-115704819D02*
X145988095Y-115704819D01*
X146273809Y-115704819D02*
X146273809Y-114704819D01*
X146273809Y-114704819D02*
X146178571Y-114847676D01*
X146178571Y-114847676D02*
X146083333Y-114942914D01*
X146083333Y-114942914D02*
X145988095Y-114990533D01*
X93454819Y-95666666D02*
X93454819Y-96142856D01*
X93454819Y-96142856D02*
X92454819Y-96142856D01*
X93454819Y-94809523D02*
X93454819Y-95380951D01*
X93454819Y-95095237D02*
X92454819Y-95095237D01*
X92454819Y-95095237D02*
X92597676Y-95190475D01*
X92597676Y-95190475D02*
X92692914Y-95285713D01*
X92692914Y-95285713D02*
X92740533Y-95380951D01*
X121357142Y-101659580D02*
X121309523Y-101707200D01*
X121309523Y-101707200D02*
X121166666Y-101754819D01*
X121166666Y-101754819D02*
X121071428Y-101754819D01*
X121071428Y-101754819D02*
X120928571Y-101707200D01*
X120928571Y-101707200D02*
X120833333Y-101611961D01*
X120833333Y-101611961D02*
X120785714Y-101516723D01*
X120785714Y-101516723D02*
X120738095Y-101326247D01*
X120738095Y-101326247D02*
X120738095Y-101183390D01*
X120738095Y-101183390D02*
X120785714Y-100992914D01*
X120785714Y-100992914D02*
X120833333Y-100897676D01*
X120833333Y-100897676D02*
X120928571Y-100802438D01*
X120928571Y-100802438D02*
X121071428Y-100754819D01*
X121071428Y-100754819D02*
X121166666Y-100754819D01*
X121166666Y-100754819D02*
X121309523Y-100802438D01*
X121309523Y-100802438D02*
X121357142Y-100850057D01*
X122309523Y-101754819D02*
X121738095Y-101754819D01*
X122023809Y-101754819D02*
X122023809Y-100754819D01*
X122023809Y-100754819D02*
X121928571Y-100897676D01*
X121928571Y-100897676D02*
X121833333Y-100992914D01*
X121833333Y-100992914D02*
X121738095Y-101040533D01*
X122642857Y-100754819D02*
X123261904Y-100754819D01*
X123261904Y-100754819D02*
X122928571Y-101135771D01*
X122928571Y-101135771D02*
X123071428Y-101135771D01*
X123071428Y-101135771D02*
X123166666Y-101183390D01*
X123166666Y-101183390D02*
X123214285Y-101231009D01*
X123214285Y-101231009D02*
X123261904Y-101326247D01*
X123261904Y-101326247D02*
X123261904Y-101564342D01*
X123261904Y-101564342D02*
X123214285Y-101659580D01*
X123214285Y-101659580D02*
X123166666Y-101707200D01*
X123166666Y-101707200D02*
X123071428Y-101754819D01*
X123071428Y-101754819D02*
X122785714Y-101754819D01*
X122785714Y-101754819D02*
X122690476Y-101707200D01*
X122690476Y-101707200D02*
X122642857Y-101659580D01*
%TO.C,J9*%
D13*
X152390000Y-132645000D02*
X153810000Y-132645000D01*
X152390000Y-144365000D02*
X152390000Y-132645000D01*
X153810000Y-132645000D02*
X153810000Y-137145000D01*
X153810000Y-137145000D02*
X161200000Y-137145000D01*
X154650000Y-132955000D02*
X155250000Y-132955000D01*
X154950000Y-133555000D02*
X154650000Y-132955000D01*
X155250000Y-132955000D02*
X154950000Y-133555000D01*
X161200000Y-144365000D02*
X152390000Y-144365000D01*
X161200000Y-144365000D02*
X170010000Y-144365000D01*
X168590000Y-132645000D02*
X168590000Y-137145000D01*
X168590000Y-137145000D02*
X161200000Y-137145000D01*
X170010000Y-132645000D02*
X168590000Y-132645000D01*
X170010000Y-144365000D02*
X170010000Y-132645000D01*
X154700000Y-138255000D02*
X155200000Y-138255000D01*
X155200000Y-143755000D01*
X154700000Y-143755000D01*
X154700000Y-138255000D01*
X157200000Y-138255000D02*
X157700000Y-138255000D01*
X157700000Y-143755000D01*
X157200000Y-143755000D01*
X157200000Y-138255000D01*
X159700000Y-138255000D02*
X160200000Y-138255000D01*
X160200000Y-143755000D01*
X159700000Y-143755000D01*
X159700000Y-138255000D01*
X162200000Y-138255000D02*
X162700000Y-138255000D01*
X162700000Y-143755000D01*
X162200000Y-143755000D01*
X162200000Y-138255000D01*
X164700000Y-138255000D02*
X165200000Y-138255000D01*
X165200000Y-143755000D01*
X164700000Y-143755000D01*
X164700000Y-138255000D01*
X167200000Y-138255000D02*
X167700000Y-138255000D01*
X167700000Y-143755000D01*
X167200000Y-143755000D01*
X167200000Y-138255000D01*
%TO.C,Q10*%
D12*
X142340000Y-124090000D02*
X141690000Y-124090000D01*
X142340000Y-124090000D02*
X142990000Y-124090000D01*
X142340000Y-127210000D02*
X141690000Y-127210000D01*
X142340000Y-127210000D02*
X142990000Y-127210000D01*
D13*
X143742500Y-127490000D02*
X143262500Y-127490000D01*
X143502500Y-127160000D01*
X143742500Y-127490000D01*
G36*
X143742500Y-127490000D02*
G01*
X143262500Y-127490000D01*
X143502500Y-127160000D01*
X143742500Y-127490000D01*
G37*
%TO.C,J7*%
X155940000Y-110520000D02*
X155940000Y-113280000D01*
X161130000Y-110520000D02*
X155940000Y-110520000D01*
X161130000Y-110520000D02*
X161130000Y-113280000D01*
X161130000Y-113280000D02*
X155940000Y-113280000D01*
X162400000Y-110520000D02*
X163780000Y-110520000D01*
X163780000Y-110520000D02*
X163780000Y-111900000D01*
%TO.C,J6*%
X135190000Y-132645000D02*
X136610000Y-132645000D01*
X135190000Y-144365000D02*
X135190000Y-132645000D01*
X136610000Y-132645000D02*
X136610000Y-137145000D01*
X136610000Y-137145000D02*
X141500000Y-137145000D01*
X137450000Y-132955000D02*
X138050000Y-132955000D01*
X137750000Y-133555000D02*
X137450000Y-132955000D01*
X138050000Y-132955000D02*
X137750000Y-133555000D01*
X141500000Y-144365000D02*
X135190000Y-144365000D01*
X141500000Y-144365000D02*
X147810000Y-144365000D01*
X146390000Y-132645000D02*
X146390000Y-137145000D01*
X146390000Y-137145000D02*
X141500000Y-137145000D01*
X147810000Y-132645000D02*
X146390000Y-132645000D01*
X147810000Y-144365000D02*
X147810000Y-132645000D01*
X137500000Y-138255000D02*
X138000000Y-138255000D01*
X138000000Y-143755000D01*
X137500000Y-143755000D01*
X137500000Y-138255000D01*
X140000000Y-138255000D02*
X140500000Y-138255000D01*
X140500000Y-143755000D01*
X140000000Y-143755000D01*
X140000000Y-138255000D01*
X142500000Y-138255000D02*
X143000000Y-138255000D01*
X143000000Y-143755000D01*
X142500000Y-143755000D01*
X142500000Y-138255000D01*
X145000000Y-138255000D02*
X145500000Y-138255000D01*
X145500000Y-143755000D01*
X145000000Y-143755000D01*
X145000000Y-138255000D01*
%TO.C,U6*%
D12*
X115590000Y-118800000D02*
X120650000Y-118800000D01*
X115590000Y-121840000D02*
X115590000Y-118800000D01*
X120650000Y-118800000D02*
X120650000Y-121840000D01*
X120650000Y-121840000D02*
X115590000Y-121840000D01*
D14*
X115620000Y-123090000D02*
G75*
G02*
X115320000Y-123090000I-150000J0D01*
G01*
X115320000Y-123090000D02*
G75*
G02*
X115620000Y-123090000I150000J0D01*
G01*
D15*
X115700000Y-123320000D02*
G75*
G02*
X115640000Y-123320000I-30000J0D01*
G01*
X115640000Y-123320000D02*
G75*
G02*
X115700000Y-123320000I30000J0D01*
G01*
D14*
X116370000Y-121090000D02*
G75*
G02*
X116070000Y-121090000I-150000J0D01*
G01*
X116070000Y-121090000D02*
G75*
G02*
X116370000Y-121090000I150000J0D01*
G01*
%TO.C,S1*%
D16*
X170653750Y-115380000D02*
X170883750Y-115380000D01*
X170653750Y-119380000D02*
X170653750Y-115380000D01*
X170883750Y-119380000D02*
X170653750Y-119380000D01*
X173553750Y-115380000D02*
X173323750Y-115380000D01*
X173553750Y-115380000D02*
X173553750Y-119380000D01*
X173553750Y-119380000D02*
X173323750Y-119380000D01*
%TO.C,J5*%
D13*
X102440000Y-135910000D02*
X102440000Y-130300000D01*
X103290000Y-135910000D02*
X102440000Y-135910000D01*
X103290000Y-143610000D02*
X103290000Y-135910000D01*
X112750000Y-126190000D02*
X109010000Y-126190000D01*
X117310000Y-143610000D02*
X103290000Y-143610000D01*
X117310000Y-143610000D02*
X117310000Y-135910000D01*
X118160000Y-135910000D02*
X117310000Y-135910000D01*
X118160000Y-135910000D02*
X118160000Y-130300000D01*
X102440000Y-130300000D02*
G75*
G02*
X104433194Y-126777042I4110000J0D01*
G01*
X115289900Y-126341282D02*
G75*
G02*
X118160000Y-130300000I-1239898J-3918716D01*
G01*
%TO.C,U3*%
D17*
X101730000Y-119600000D02*
X101670000Y-119600000D01*
X101730000Y-119600000D02*
X104230000Y-119600000D01*
X104230000Y-109400000D02*
X101670000Y-109400000D01*
X104230000Y-119600000D02*
X104230000Y-109400000D01*
D18*
X105380000Y-119100000D02*
G75*
G02*
X104880000Y-119100000I-250000J0D01*
G01*
X104880000Y-119100000D02*
G75*
G02*
X105380000Y-119100000I250000J0D01*
G01*
D15*
X108630000Y-119580000D02*
G75*
G02*
X108570000Y-119580000I-30000J0D01*
G01*
X108570000Y-119580000D02*
G75*
G02*
X108630000Y-119580000I30000J0D01*
G01*
%TO.C,Q9*%
D12*
X137580000Y-122090000D02*
X136930000Y-122090000D01*
X137580000Y-122090000D02*
X138230000Y-122090000D01*
X137580000Y-125210000D02*
X136930000Y-125210000D01*
X137580000Y-125210000D02*
X138230000Y-125210000D01*
D13*
X138982500Y-125490000D02*
X138502500Y-125490000D01*
X138742500Y-125160000D01*
X138982500Y-125490000D01*
G36*
X138982500Y-125490000D02*
G01*
X138502500Y-125490000D01*
X138742500Y-125160000D01*
X138982500Y-125490000D01*
G37*
%TO.C,U4*%
D12*
X159210000Y-93555000D02*
X162150000Y-93555000D01*
X159210000Y-100215000D02*
X159210000Y-93555000D01*
X162150000Y-93555000D02*
X162150000Y-100215000D01*
X162150000Y-100215000D02*
X159210000Y-100215000D01*
X162560000Y-99885000D02*
G75*
G02*
X162500000Y-99885000I-30000J0D01*
G01*
X162500000Y-99885000D02*
G75*
G02*
X162560000Y-99885000I30000J0D01*
G01*
%TO.C,X2*%
X169403750Y-115760000D02*
X167803750Y-115760000D01*
X169403750Y-117110000D02*
X169403750Y-115760000D01*
%TO.C,D5*%
X171503750Y-122010000D02*
X173793750Y-122010000D01*
X173793750Y-120550000D02*
X171503750Y-120550000D01*
X173793750Y-122010000D02*
X173793750Y-120550000D01*
%TO.C,J2*%
D13*
X107620000Y-92958272D02*
X108190000Y-92958272D01*
X107620000Y-98158272D02*
X107620000Y-92958272D01*
X107620000Y-98158272D02*
X108190000Y-98158272D01*
X108190000Y-92958272D02*
X108190000Y-91598272D01*
X109710000Y-92958272D02*
X110730000Y-92958272D01*
X109710000Y-98158272D02*
X110730000Y-98158272D01*
X112250000Y-92958272D02*
X113270000Y-92958272D01*
X112250000Y-98158272D02*
X113270000Y-98158272D01*
X114790000Y-92958272D02*
X115810000Y-92958272D01*
X114790000Y-98158272D02*
X115810000Y-98158272D01*
X117330000Y-92958272D02*
X118350000Y-92958272D01*
X117330000Y-98158272D02*
X118350000Y-98158272D01*
X119870000Y-92958272D02*
X120890000Y-92958272D01*
X119870000Y-98158272D02*
X120890000Y-98158272D01*
X122410000Y-92958272D02*
X123430000Y-92958272D01*
X122410000Y-98158272D02*
X123430000Y-98158272D01*
X124950000Y-92958272D02*
X125970000Y-92958272D01*
X124950000Y-98158272D02*
X125970000Y-98158272D01*
X127490000Y-92958272D02*
X128510000Y-92958272D01*
X127490000Y-98158272D02*
X128510000Y-98158272D01*
X130030000Y-92958272D02*
X131050000Y-92958272D01*
X130030000Y-98158272D02*
X131050000Y-98158272D01*
X132570000Y-92958272D02*
X133590000Y-92958272D01*
X132570000Y-98158272D02*
X133590000Y-98158272D01*
X135110000Y-92958272D02*
X136130000Y-92958272D01*
X135110000Y-98158272D02*
X136130000Y-98158272D01*
X137650000Y-92958272D02*
X138670000Y-92958272D01*
X137650000Y-98158272D02*
X138670000Y-98158272D01*
X140190000Y-92958272D02*
X141210000Y-92958272D01*
X140190000Y-98158272D02*
X141210000Y-98158272D01*
X142730000Y-92958272D02*
X143750000Y-92958272D01*
X142730000Y-98158272D02*
X143750000Y-98158272D01*
X145270000Y-92958272D02*
X146290000Y-92958272D01*
X145270000Y-98158272D02*
X146290000Y-98158272D01*
X147810000Y-92958272D02*
X148380000Y-92958272D01*
X147810000Y-98158272D02*
X148380000Y-98158272D01*
X148380000Y-98158272D02*
X148380000Y-92958272D01*
%TO.C,C9*%
X79740000Y-111240000D02*
X79740000Y-114990000D01*
X79740000Y-121760000D02*
X79740000Y-118010000D01*
X89195563Y-111240000D02*
X79740000Y-111240000D01*
X89195563Y-121760000D02*
X79740000Y-121760000D01*
X90260000Y-112304437D02*
X89195563Y-111240000D01*
X90260000Y-112304437D02*
X90260000Y-114990000D01*
X90260000Y-120695563D02*
X89195563Y-121760000D01*
X90260000Y-120695563D02*
X90260000Y-118010000D01*
X91125000Y-119885000D02*
X91125000Y-118635000D01*
X91750000Y-119260000D02*
X90500000Y-119260000D01*
%TO.C,Q1*%
X147270000Y-120640000D02*
X151890000Y-120640000D01*
X147270000Y-123900000D02*
X148650000Y-123900000D01*
X147270000Y-127600000D02*
X148650000Y-127600000D01*
X147270000Y-130860000D02*
X147270000Y-120640000D01*
X148650000Y-130860000D02*
X148650000Y-120640000D01*
X151890000Y-120640000D02*
X151890000Y-130860000D01*
X151890000Y-130860000D02*
X147270000Y-130860000D01*
%TO.C,C12*%
X128740000Y-102240000D02*
X132490000Y-102240000D01*
X128740000Y-111695563D02*
X128740000Y-102240000D01*
X129804437Y-112760000D02*
X128740000Y-111695563D01*
X129804437Y-112760000D02*
X132490000Y-112760000D01*
X130615000Y-113625000D02*
X131865000Y-113625000D01*
X131240000Y-114250000D02*
X131240000Y-113000000D01*
X138195563Y-112760000D02*
X135510000Y-112760000D01*
X138195563Y-112760000D02*
X139260000Y-111695563D01*
X139260000Y-102240000D02*
X135510000Y-102240000D01*
X139260000Y-111695563D02*
X139260000Y-102240000D01*
%TO.C,J4*%
X85890000Y-143610000D02*
X85890000Y-129300000D01*
X95040000Y-125190000D02*
X91300000Y-125190000D01*
X101610000Y-143610000D02*
X85890000Y-143610000D01*
X101610000Y-143610000D02*
X101610000Y-129300000D01*
X85890000Y-129300000D02*
G75*
G02*
X88798352Y-125369587I4110000J0D01*
G01*
X99616806Y-125777042D02*
G75*
G02*
X101610000Y-129300000I-2116805J-3522957D01*
G01*
%TO.C,J3*%
X174515000Y-106950000D02*
X174515000Y-99220000D01*
X177275000Y-99220000D02*
X174515000Y-99220000D01*
X177275000Y-106950000D02*
X174515000Y-106950000D01*
X177275000Y-106950000D02*
X177275000Y-99220000D01*
X177275000Y-108220000D02*
X177275000Y-109600000D01*
X177275000Y-109600000D02*
X175895000Y-109600000D01*
%TO.C,U2*%
D12*
X166100000Y-101675000D02*
X166190000Y-101675000D01*
X166100000Y-105495000D02*
X166100000Y-101675000D01*
X166100000Y-105495000D02*
X166190000Y-105495000D01*
X171100000Y-101675000D02*
X171010000Y-101675000D01*
X171100000Y-101675000D02*
X171100000Y-105495000D01*
X171100000Y-105495000D02*
X171010000Y-105495000D01*
X171130000Y-101335000D02*
G75*
G02*
X171070000Y-101335000I-30000J0D01*
G01*
X171070000Y-101335000D02*
G75*
G02*
X171130000Y-101335000I30000J0D01*
G01*
%TO.C,D3*%
X174675000Y-97275000D02*
X174675000Y-98735000D01*
X174675000Y-98735000D02*
X176965000Y-98735000D01*
X176965000Y-97275000D02*
X174675000Y-97275000D01*
%TO.C,D1*%
X79100000Y-123740000D02*
X79100000Y-129250000D01*
X82400000Y-123740000D02*
X79100000Y-123740000D01*
X82400000Y-123740000D02*
X82400000Y-129250000D01*
%TO.C,Q12*%
X133240000Y-124590000D02*
X132590000Y-124590000D01*
X133240000Y-124590000D02*
X133890000Y-124590000D01*
X133240000Y-127710000D02*
X132590000Y-127710000D01*
X133240000Y-127710000D02*
X133890000Y-127710000D01*
D13*
X132077500Y-124640000D02*
X131837500Y-124310000D01*
X132317500Y-124310000D01*
X132077500Y-124640000D01*
G36*
X132077500Y-124640000D02*
G01*
X131837500Y-124310000D01*
X132317500Y-124310000D01*
X132077500Y-124640000D01*
G37*
%TO.C,U1*%
D12*
X141170000Y-104730000D02*
X147830000Y-104730000D01*
X141170000Y-108270000D02*
X141170000Y-104730000D01*
X147830000Y-104730000D02*
X147830000Y-108270000D01*
X147830000Y-108270000D02*
X141170000Y-108270000D01*
D14*
X147590000Y-105480000D02*
G75*
G02*
X147270000Y-105480000I-160000J0D01*
G01*
X147270000Y-105480000D02*
G75*
G02*
X147590000Y-105480000I160000J0D01*
G01*
D15*
X147780000Y-103300000D02*
G75*
G02*
X147720000Y-103300000I-30000J0D01*
G01*
X147720000Y-103300000D02*
G75*
G02*
X147780000Y-103300000I30000J0D01*
G01*
D14*
X148210000Y-103630000D02*
G75*
G02*
X147910000Y-103630000I-150000J0D01*
G01*
X147910000Y-103630000D02*
G75*
G02*
X148210000Y-103630000I150000J0D01*
G01*
%TO.C,Q11*%
D12*
X137440000Y-125790000D02*
X136790000Y-125790000D01*
X137440000Y-125790000D02*
X138090000Y-125790000D01*
X137440000Y-128910000D02*
X136790000Y-128910000D01*
X137440000Y-128910000D02*
X138090000Y-128910000D01*
D13*
X136277500Y-125840000D02*
X136037500Y-125510000D01*
X136517500Y-125510000D01*
X136277500Y-125840000D01*
G36*
X136277500Y-125840000D02*
G01*
X136037500Y-125510000D01*
X136517500Y-125510000D01*
X136277500Y-125840000D01*
G37*
%TO.C,L1*%
X86200000Y-93700000D02*
X98800000Y-93700000D01*
X86200000Y-96700000D02*
X86200000Y-93700000D01*
X86200000Y-106300000D02*
X86200000Y-103300000D01*
X98800000Y-93700000D02*
X98800000Y-96700000D01*
X98800000Y-103300000D02*
X98800000Y-106300000D01*
X98800000Y-106300000D02*
X86200000Y-106300000D01*
%TO.C,D2*%
D12*
X106760000Y-101100000D02*
X101250000Y-101100000D01*
X106760000Y-104400000D02*
X101250000Y-104400000D01*
X106760000Y-104400000D02*
X106760000Y-101100000D01*
%TO.C,U5*%
X160316250Y-114400000D02*
X158116250Y-114400000D01*
X160316250Y-114400000D02*
X162516250Y-114400000D01*
X160316250Y-121160000D02*
X158116250Y-121160000D01*
X160316250Y-121160000D02*
X162516250Y-121160000D01*
D13*
X164506250Y-120945000D02*
X164176250Y-120705000D01*
X164506250Y-120465000D01*
X164506250Y-120945000D01*
G36*
X164506250Y-120945000D02*
G01*
X164176250Y-120705000D01*
X164506250Y-120465000D01*
X164506250Y-120945000D01*
G37*
%TO.C,C13*%
X115250000Y-104740000D02*
X116500000Y-104740000D01*
X115875000Y-104115000D02*
X115875000Y-105365000D01*
X116740000Y-103304437D02*
X116740000Y-105990000D01*
X116740000Y-103304437D02*
X117804437Y-102240000D01*
X116740000Y-111695563D02*
X116740000Y-109010000D01*
X116740000Y-111695563D02*
X117804437Y-112760000D01*
X117804437Y-102240000D02*
X127260000Y-102240000D01*
X117804437Y-112760000D02*
X127260000Y-112760000D01*
X127260000Y-102240000D02*
X127260000Y-105990000D01*
X127260000Y-112760000D02*
X127260000Y-109010000D01*
%TD*%
%LPC*%
D19*
%TO.C,J9*%
X154950000Y-135055000D03*
D20*
X157450000Y-135055000D03*
X159950000Y-135055000D03*
X162450000Y-135055000D03*
X164950000Y-135055000D03*
X167450000Y-135055000D03*
%TD*%
D21*
%TO.C,Q10*%
X143280000Y-126600000D03*
X143280000Y-124700000D03*
X141400000Y-125650000D03*
%TD*%
D22*
%TO.C,J7*%
X162400000Y-111900000D03*
D23*
X159860000Y-111900000D03*
X157320000Y-111900000D03*
%TD*%
D24*
%TO.C,R28*%
X115700000Y-114430000D03*
X115700000Y-116070000D03*
%TD*%
D19*
%TO.C,J6*%
X137750000Y-135055000D03*
D20*
X140250000Y-135055000D03*
X142750000Y-135055000D03*
X145250000Y-135055000D03*
%TD*%
D25*
%TO.C,U6*%
X116220000Y-122890000D03*
X117490000Y-122890000D03*
X118750000Y-122890000D03*
X120020000Y-122890000D03*
X120020000Y-117750000D03*
X118750000Y-117750000D03*
X117490000Y-117750000D03*
X116220000Y-117750000D03*
%TD*%
D26*
%TO.C,R3*%
X143070000Y-111250000D03*
X141430000Y-111250000D03*
%TD*%
D24*
%TO.C,R6*%
X145600000Y-124830000D03*
X145600000Y-126470000D03*
%TD*%
D27*
%TO.C,S1*%
X172103750Y-119455000D03*
X172103750Y-115305000D03*
%TD*%
D28*
%TO.C,C11*%
X105000000Y-105470000D03*
X105000000Y-107030000D03*
%TD*%
D29*
%TO.C,C14*%
X107246750Y-105431089D03*
X107246750Y-108391089D03*
%TD*%
D24*
%TO.C,R5*%
X132380000Y-121830000D03*
X132380000Y-123470000D03*
%TD*%
D30*
%TO.C,J5*%
X117050000Y-134150000D03*
X103550000Y-134150000D03*
D31*
X106700000Y-128150000D03*
D32*
X113900000Y-128150000D03*
%TD*%
D33*
%TO.C,U3*%
X107660000Y-117900000D03*
X107660000Y-116200000D03*
X107660000Y-114500000D03*
X107660000Y-112800000D03*
X107660000Y-111100000D03*
D34*
X97000000Y-114500000D03*
%TD*%
D35*
%TO.C,C15*%
X87520000Y-107750000D03*
X90480000Y-107750000D03*
%TD*%
D21*
%TO.C,Q9*%
X138520000Y-124600000D03*
X138520000Y-122700000D03*
X136640000Y-123650000D03*
%TD*%
D36*
%TO.C,U4*%
X163750000Y-99185000D03*
X163750000Y-96885000D03*
X163750000Y-94585000D03*
D37*
X157780000Y-95885000D03*
X157780000Y-96885000D03*
D38*
X157780000Y-96885000D03*
D37*
X157780000Y-97885000D03*
%TD*%
D39*
%TO.C,X2*%
X168503750Y-116580000D03*
X166303750Y-116580000D03*
X166303750Y-118340000D03*
X168503750Y-118340000D03*
%TD*%
D40*
%TO.C,D5*%
X173093750Y-121280000D03*
X171513750Y-121280000D03*
%TD*%
D41*
%TO.C,H1*%
X82000000Y-92000000D03*
D42*
X82000000Y-92000000D03*
%TD*%
D43*
%TO.C,C10*%
X87720000Y-110000000D03*
X89280000Y-110000000D03*
%TD*%
D44*
%TO.C,J2*%
X108950000Y-93038272D03*
X108950000Y-98078272D03*
X111490000Y-93038272D03*
X111490000Y-98078272D03*
X114030000Y-93038272D03*
X114030000Y-98078272D03*
X116570000Y-93038272D03*
X116570000Y-98078272D03*
X119110000Y-93038272D03*
X119110000Y-98078272D03*
X121650000Y-93038272D03*
X121650000Y-98078272D03*
X124190000Y-93038272D03*
X124190000Y-98078272D03*
X126730000Y-93038272D03*
X126730000Y-98078272D03*
X129270000Y-93038272D03*
X129270000Y-98078272D03*
X131810000Y-93038272D03*
X131810000Y-98078272D03*
X134350000Y-93038272D03*
X134350000Y-98078272D03*
X136890000Y-93038272D03*
X136890000Y-98078272D03*
X139430000Y-93038272D03*
X139430000Y-98078272D03*
X141970000Y-93038272D03*
X141970000Y-98078272D03*
X144510000Y-93038272D03*
X144510000Y-98078272D03*
X147050000Y-93038272D03*
X147050000Y-98078272D03*
%TD*%
D43*
%TO.C,C16*%
X165840000Y-94585000D03*
X167400000Y-94585000D03*
%TD*%
D45*
%TO.C,C9*%
X89000000Y-116500000D03*
X81000000Y-116500000D03*
%TD*%
D46*
%TO.C,Q1*%
X150530000Y-128290000D03*
D47*
X150530000Y-125750000D03*
X150530000Y-123210000D03*
%TD*%
D26*
%TO.C,R2*%
X143820000Y-113000000D03*
X142180000Y-113000000D03*
%TD*%
D48*
%TO.C,C6*%
X164903750Y-115260000D03*
X164903750Y-113700000D03*
%TD*%
D49*
%TO.C,C12*%
X134000000Y-111500000D03*
X134000000Y-103500000D03*
%TD*%
D30*
%TO.C,J4*%
X100500000Y-133150000D03*
X87000000Y-133150000D03*
D31*
X97350000Y-127150000D03*
D32*
X90150000Y-127150000D03*
%TD*%
D22*
%TO.C,J3*%
X175895000Y-108220000D03*
D23*
X175895000Y-105680000D03*
X175895000Y-103140000D03*
X175895000Y-100600000D03*
%TD*%
D28*
%TO.C,C4*%
X114870000Y-117790000D03*
X114870000Y-119350000D03*
%TD*%
D43*
%TO.C,C18*%
X165940000Y-96885000D03*
X167500000Y-96885000D03*
%TD*%
D50*
%TO.C,U2*%
X170510000Y-100875000D03*
X169240000Y-100875000D03*
X167960000Y-100875000D03*
X166690000Y-100875000D03*
X166690000Y-106295000D03*
X167960000Y-106295000D03*
X169240000Y-106295000D03*
X170510000Y-106295000D03*
%TD*%
D51*
%TO.C,R20*%
X154700000Y-127120000D03*
X154700000Y-125480000D03*
%TD*%
D52*
%TO.C,R12*%
X169903750Y-118580000D03*
X169903750Y-119580000D03*
%TD*%
D53*
%TO.C,D3*%
X175375000Y-98005000D03*
X176955000Y-98005000D03*
%TD*%
D54*
%TO.C,D1*%
X80750000Y-125250000D03*
X80750000Y-129250000D03*
%TD*%
D55*
%TO.C,H6*%
X153000000Y-94000000D03*
%TD*%
D56*
%TO.C,Q12*%
X132300000Y-125200000D03*
X132300000Y-127100000D03*
X134180000Y-126150000D03*
%TD*%
D57*
%TO.C,U1*%
X147430000Y-103630000D03*
X146780000Y-103630000D03*
X146130000Y-103630000D03*
X145480000Y-103630000D03*
X144820000Y-103630000D03*
X144170000Y-103630000D03*
X143520000Y-103630000D03*
X142870000Y-103630000D03*
X142220000Y-103630000D03*
X141570000Y-103630000D03*
X141570000Y-109370000D03*
X142220000Y-109370000D03*
X142870000Y-109370000D03*
X143520000Y-109370000D03*
X144170000Y-109370000D03*
X144820000Y-109370000D03*
X145480000Y-109370000D03*
X146130000Y-109370000D03*
X146780000Y-109370000D03*
X147430000Y-109370000D03*
%TD*%
D58*
%TO.C,R18*%
X118550000Y-115570000D03*
X120190000Y-115570000D03*
%TD*%
D48*
%TO.C,C2*%
X171900000Y-106145000D03*
X171900000Y-104585000D03*
%TD*%
D59*
%TO.C,R1*%
X173200000Y-98285000D03*
X174200000Y-98285000D03*
%TD*%
D55*
%TO.C,H5*%
X103000000Y-94000000D03*
%TD*%
D43*
%TO.C,C1*%
X148720000Y-109500000D03*
X150280000Y-109500000D03*
%TD*%
D60*
%TO.C,R24*%
X154100000Y-131400000D03*
X154100000Y-130400000D03*
%TD*%
D56*
%TO.C,Q11*%
X136500000Y-126400000D03*
X136500000Y-128300000D03*
X138380000Y-127350000D03*
%TD*%
D52*
%TO.C,R23*%
X155100000Y-130400000D03*
X155100000Y-131400000D03*
%TD*%
D24*
%TO.C,R21*%
X117000000Y-114180000D03*
X117000000Y-115820000D03*
%TD*%
D55*
%TO.C,H2*%
X174000000Y-134000000D03*
%TD*%
D61*
%TO.C,C3*%
X168183750Y-115080000D03*
X166623750Y-115080000D03*
%TD*%
D62*
%TO.C,L1*%
X87550000Y-100000000D03*
X97450000Y-100000000D03*
%TD*%
D55*
%TO.C,H4*%
X174000000Y-92000000D03*
%TD*%
D58*
%TO.C,R4*%
X152680000Y-128300000D03*
X154320000Y-128300000D03*
%TD*%
D63*
%TO.C,D2*%
X105250000Y-102750000D03*
X101250000Y-102750000D03*
%TD*%
D64*
%TO.C,U5*%
X163176250Y-120700000D03*
X163176250Y-120050000D03*
X163176250Y-119400000D03*
X163176250Y-118750000D03*
X163176250Y-118110000D03*
X163176250Y-117450000D03*
X163176250Y-116810000D03*
X163176250Y-116160000D03*
X163176250Y-115510000D03*
X163176250Y-114860000D03*
X157456250Y-114860000D03*
X157456250Y-115510000D03*
X157456250Y-116160000D03*
X157456250Y-116810000D03*
X157456250Y-117450000D03*
X157456250Y-118110000D03*
X157456250Y-118750000D03*
X157456250Y-119400000D03*
X157456250Y-120050000D03*
X157456250Y-120700000D03*
%TD*%
D24*
%TO.C,R14*%
X114750000Y-108430000D03*
X114750000Y-110070000D03*
%TD*%
D58*
%TO.C,R7*%
X140755000Y-122750000D03*
X142395000Y-122750000D03*
%TD*%
D59*
%TO.C,R13*%
X169203750Y-121580000D03*
X170203750Y-121580000D03*
%TD*%
D61*
%TO.C,C17*%
X105355000Y-100125000D03*
X103795000Y-100125000D03*
%TD*%
D43*
%TO.C,C5*%
X166523750Y-119880000D03*
X168083750Y-119880000D03*
%TD*%
D65*
%TO.C,C13*%
X118000000Y-107500000D03*
X126000000Y-107500000D03*
%TD*%
D24*
%TO.C,R17*%
X154800000Y-117200000D03*
X154800000Y-118840000D03*
%TD*%
D51*
%TO.C,R27*%
X114200000Y-116070000D03*
X114200000Y-114430000D03*
%TD*%
D59*
%TO.C,R19*%
X148500000Y-108000000D03*
X149500000Y-108000000D03*
%TD*%
D24*
%TO.C,R16*%
X114750000Y-111430000D03*
X114750000Y-113070000D03*
%TD*%
D55*
%TO.C,H3*%
X82000000Y-134000000D03*
%TD*%
%LPD*%
M02*
