M48
; DRILL file KiCad 10.0.1 date 2026-05-05T20:47:52
; FORMAT={-:-/ absolute / inch / decimal}
; #@! TF.CreationDate,2026-05-05T20:47:52+02:00
; #@! TF.GenerationSoftware,Kicad,Pcbnew,10.0.1
; #@! TF.FileFunction,Plated,1,2,PTH
FMAT,2
INCH
; #@! TA.AperFunction,Plated,PTH,ViaDrill
T1C0.0118
; #@! TA.AperFunction,Plated,PTH,ComponentDrill
T2C0.0118
; #@! TA.AperFunction,Plated,PTH,ComponentDrill
T3C0.0236
; #@! TA.AperFunction,Plated,PTH,ComponentDrill
T4C0.0374
; #@! TA.AperFunction,Plated,PTH,ComponentDrill
T5C0.0394
; #@! TA.AperFunction,Plated,PTH,ComponentDrill
T6C0.0433
; #@! TA.AperFunction,Plated,PTH,ComponentDrill
T7C0.1063
%
G90
G05
T1
X3.1102Y-4.8228
X3.1102Y-4.8524
X3.1398Y-4.8228
X3.1398Y-4.8524
X3.1693Y-4.8228
X3.1693Y-4.8524
X3.1988Y-4.8228
X3.1988Y-4.8524
X3.2087Y-4.4783
X3.2087Y-4.5079
X3.2087Y-4.6654
X3.2087Y-4.6949
X3.2205Y-3.9075
X3.2205Y-3.937
X3.2205Y-3.9665
X3.2205Y-3.9961
X3.2205Y-4.0256
X3.2205Y-4.0551
X3.2283Y-4.8228
X3.2283Y-4.8524
X3.2382Y-4.4783
X3.2382Y-4.5079
X3.2382Y-4.6654
X3.2382Y-4.6949
X3.25Y-3.9075
X3.25Y-3.937
X3.25Y-3.9665
X3.25Y-3.9961
X3.25Y-4.0256
X3.25Y-4.0551
X3.2677Y-4.4783
X3.2677Y-4.5079
X3.2677Y-4.6654
X3.2677Y-4.6949
X3.2972Y-4.4783
X3.2972Y-4.5079
X3.2972Y-4.6654
X3.2972Y-4.6949
X3.3268Y-4.4783
X3.3268Y-4.5079
X3.3268Y-4.6654
X3.3268Y-4.6949
X3.563Y-3.6516
X3.5669Y-4.3701
X3.5669Y-4.3996
X3.5728Y-4.1339
X3.5728Y-4.1634
X3.5925Y-3.6516
X3.5945Y-4.3701
X3.5945Y-4.3996
X3.6024Y-4.1339
X3.6024Y-4.1634
X3.622Y-3.6516
X3.6319Y-4.1339
X3.6319Y-4.1634
X3.6319Y-4.1929
X3.6319Y-4.2224
X3.6319Y-4.248
X3.6516Y-3.6516
X3.6614Y-4.1339
X3.6614Y-4.1634
X3.6614Y-4.1929
X3.6614Y-4.2224
X3.6614Y-4.248
X3.6811Y-3.6516
X3.687Y-4.7972
X3.687Y-4.8268
X3.6909Y-4.1339
X3.6909Y-4.1634
X3.6909Y-4.1929
X3.6909Y-4.2224
X3.6909Y-4.248
X3.7165Y-4.7972
X3.7165Y-4.8268
X3.7205Y-4.1339
X3.7205Y-4.1634
X3.7205Y-4.1929
X3.7205Y-4.2224
X3.7205Y-4.248
X3.7461Y-4.7972
X3.7461Y-4.8268
X3.7756Y-4.7972
X3.7756Y-4.8268
X3.8051Y-4.7972
X3.8051Y-4.8268
X3.8346Y-4.7972
X3.8346Y-4.8268
X3.9173Y-4.1437
X3.9173Y-4.1732
X3.9173Y-4.2028
X3.9173Y-4.2323
X3.9469Y-4.1437
X3.9469Y-4.1732
X3.9469Y-4.2028
X3.9469Y-4.2323
X3.9665Y-3.8406
X3.9665Y-3.8701
X3.9764Y-4.1437
X3.9764Y-4.1732
X3.9764Y-4.2028
X3.9764Y-4.2323
X3.9961Y-3.8406
X3.9961Y-3.8701
X4.0059Y-4.1437
X4.0059Y-4.1732
X4.0059Y-4.2028
X4.0059Y-4.2323
X4.0256Y-3.8406
X4.0256Y-3.8701
X4.0354Y-4.1437
X4.0354Y-4.1732
X4.0354Y-4.2028
X4.0354Y-4.2323
X4.0354Y-4.2618
X4.0551Y-3.8406
X4.0551Y-3.8701
X4.0629Y-4.1441
X4.065Y-4.1732
X4.065Y-4.2028
X4.065Y-4.2323
X4.065Y-4.2618
X4.0846Y-3.8406
X4.0846Y-3.8701
X4.1142Y-3.8406
X4.1142Y-3.8701
X4.1634Y-4.6949
X4.1634Y-4.7244
X4.1929Y-4.6949
X4.1929Y-4.7244
X4.2224Y-4.6949
X4.2224Y-4.7244
X4.252Y-4.6949
X4.252Y-4.7244
X4.2815Y-4.6949
X4.2815Y-4.7244
X4.311Y-4.1929
X4.311Y-4.2224
X4.311Y-4.252
X4.311Y-4.2815
X4.311Y-4.311
X4.311Y-4.6949
X4.311Y-4.7244
X4.3346Y-3.6201
X4.3346Y-3.6594
X4.3346Y-3.7008
X4.3406Y-3.8583
X4.3406Y-4.1929
X4.3406Y-4.2224
X4.3406Y-4.252
X4.3406Y-4.2815
X4.3406Y-4.311
X4.3406Y-4.5758
X4.439Y-3.6555
X4.439Y-3.685
X4.439Y-3.7126
X4.439Y-3.8583
X4.4783Y-4.6358
X4.5276Y-4.7441
X4.5374Y-3.8583
X4.5531Y-3.6122
X4.5531Y-3.6516
X4.5531Y-3.6929
X4.5965Y-4.4587
X4.6063Y-4.7126
X4.6142Y-4.7638
X4.6358Y-3.8583
X4.6752Y-4.4783
X4.6929Y-4.7402
X4.7047Y-4.5866
X4.7343Y-3.8583
X4.7382Y-3.6181
X4.7382Y-3.6575
X4.7382Y-3.6969
X4.7638Y-4.8327
X4.7736Y-4.5472
X4.8189Y-4.7205
X4.8307Y-4.811
X4.8386Y-3.6201
X4.8386Y-3.6594
X4.8386Y-3.6988
X4.845Y-3.8608
X4.8819Y-4.1535
X4.8917Y-4.311
X4.8917Y-4.3406
X4.9114Y-4.1535
X4.9213Y-4.311
X4.9213Y-4.3406
X4.939Y-3.6201
X4.939Y-3.6594
X4.939Y-3.6988
X4.9409Y-4.1535
X4.9409Y-4.563
X4.9434Y-3.8608
X4.9508Y-4.311
X4.9508Y-4.3406
X4.9705Y-4.1535
X4.9803Y-4.311
X4.9803Y-4.3406
X5.0Y-4.1535
X5.0098Y-4.311
X5.0098Y-4.3406
X5.0295Y-4.1535
X5.0394Y-4.311
X5.0394Y-4.3406
X5.1299Y-3.8622
X5.1378Y-3.6201
X5.1378Y-3.6594
X5.1378Y-3.7008
X5.1575Y-3.9469
X5.2303Y-3.8602
X5.2382Y-3.624
X5.2382Y-3.6811
X5.2382Y-3.7047
X5.3307Y-3.8602
X5.3386Y-3.622
X5.3386Y-3.6614
X5.3386Y-3.7028
X5.374Y-3.9961
X5.374Y-4.0256
X5.374Y-4.0551
X5.374Y-4.0846
X5.374Y-4.1142
X5.374Y-4.1437
X5.389Y-5.0217
X5.4035Y-3.9961
X5.4035Y-4.0256
X5.4035Y-4.0551
X5.4035Y-4.0846
X5.4035Y-4.1142
X5.4035Y-4.1437
X5.4272Y-3.8602
X5.4567Y-4.5945
X5.4717Y-5.0492
X5.4756Y-4.8602
X5.5118Y-4.1693
X5.5118Y-4.3465
X5.5157Y-4.0591
X5.5295Y-3.8583
X5.5512Y-4.0276
X5.6004Y-4.0256
X5.6299Y-3.8583
X5.6299Y-4.2323
X5.637Y-5.0177
X5.6457Y-3.6634
X5.7047Y-4.1614
X5.7283Y-4.0157
X5.7323Y-4.6417
X5.7323Y-5.1614
X5.7343Y-3.8563
X5.7441Y-4.3799
X5.7677Y-4.2126
X5.7885Y-4.7145
X5.8327Y-3.6201
X5.8327Y-3.6594
X5.8327Y-3.7008
X5.8346Y-3.8602
X5.8386Y-4.5945
X5.8425Y-4.0315
X5.8425Y-4.1417
X5.8465Y-4.2126
X5.8576Y-5.1967
X5.8583Y-4.4331
X5.8974Y-4.7112
X5.9055Y-3.9843
X5.9134Y-4.0591
X5.937Y-4.2638
X5.9409Y-4.1614
X5.9488Y-4.437
X5.9567Y-4.0118
X5.9744Y-4.3406
X5.9764Y-4.5984
X5.9882Y-4.3898
X6.0013Y-4.1645
X6.0039Y-4.5512
X6.0118Y-3.9606
X6.0157Y-4.7638
X6.0236Y-5.1339
X6.0512Y-4.6614
X6.0591Y-3.9134
X6.0591Y-4.3898
X6.063Y-4.5748
X6.0669Y-4.9055
X6.0709Y-4.2126
X6.0945Y-4.8307
X6.0957Y-3.8766
X6.0984Y-4.4449
X6.0984Y-4.5118
X6.1339Y-3.9685
X6.1339Y-5.1732
X6.1378Y-4.7008
X6.1495Y-5.0536
X6.1535Y-4.622
X6.1693Y-4.9252
X6.2165Y-3.9685
X6.2205Y-4.8622
X6.248Y-4.7008
X6.2483Y-4.6391
X6.2577Y-4.5648
X6.2638Y-4.9331
X6.2717Y-3.9724
X6.2756Y-5.0315
X6.3254Y-4.5673
X6.3465Y-4.937
X6.3583Y-4.6457
X6.3583Y-5.1299
X6.3622Y-3.8144
X6.3661Y-4.7323
X6.4173Y-3.9646
X6.4425Y-5.1656
X6.4474Y-4.9804
X6.4528Y-3.6181
X6.4606Y-4.0
X6.4764Y-4.2283
X6.4765Y-4.6016
X6.5007Y-4.158
X6.5354Y-3.9049
X6.5394Y-5.1654
X6.5433Y-4.9764
X6.5512Y-4.4449
X6.5551Y-3.8852
X6.5669Y-4.8307
X6.5787Y-3.8616
X6.5906Y-4.3386
X6.6417Y-4.4409
X6.6577Y-4.7204
X6.6772Y-4.0906
X6.6811Y-4.2756
X6.7087Y-3.9016
X6.7087Y-5.0236
X6.7153Y-4.8517
X6.7165Y-4.3622
X6.7283Y-4.4764
X6.7797Y-4.5898
X6.7953Y-5.0984
X6.8051Y-4.0963
X6.811Y-4.3819
X6.8189Y-4.9291
X6.8387Y-4.7354
X6.8819Y-4.7008
X6.9094Y-5.0079
X6.9823Y-4.0039
T2
X6.2118Y-3.775
X6.2118Y-3.8144
X6.2118Y-3.8537
T4
X5.4232Y-5.3171
X5.5217Y-5.3171
X5.6201Y-5.3171
X5.7185Y-5.3171
X6.1004Y-5.3171
X6.1988Y-5.3171
X6.2972Y-5.3171
X6.3957Y-5.3171
X6.4941Y-5.3171
X6.5925Y-5.3171
T5
X6.1937Y-4.4055
X6.2937Y-4.4055
X6.3937Y-4.4055
X6.925Y-3.9606
X6.925Y-4.0606
X6.925Y-4.1606
X6.925Y-4.2606
T6
X5.9264Y-4.8508
X5.9264Y-4.9508
X5.9264Y-5.0508
T7
X3.2283Y-3.622
X3.5492Y-5.0059
X3.8327Y-5.0059
X4.2008Y-5.0453
X4.4843Y-5.0453
T3
G00X3.4252Y-5.2638
M15
G01X3.4252Y-5.2205
M16
G05
G00X3.9567Y-5.2638
M15
G01X3.9567Y-5.2205
M16
G05
G00X4.0768Y-5.3031
M15
G01X4.0768Y-5.2598
M16
G05
G00X4.6083Y-5.3031
M15
G01X4.6083Y-5.2598
M16
G05
M30
