%TF.GenerationSoftware,KiCad,Pcbnew,10.0.1*%
%TF.CreationDate,2026-05-05T20:47:52+02:00*%
%TF.ProjectId,MMS3_hat_ruski_wentylator_do_pieca,4d4d5333-5f68-4617-945f-7275736b695f,R0*%
%TF.SameCoordinates,Original*%
%TF.FileFunction,Soldermask,Top*%
%TF.FilePolarity,Negative*%
%FSLAX46Y46*%
G04 Gerber Fmt 4.6, Leading zero omitted, Abs format (unit mm)*
G04 Created by KiCad (PCBNEW 10.0.1) date 2026-05-05 20:47:52*
%MOMM*%
%LPD*%
G01*
G04 APERTURE LIST*
G04 Aperture macros list*
%AMRoundRect*
0 Rectangle with rounded corners*
0 $1 Rounding radius*
0 $2 $3 $4 $5 $6 $7 $8 $9 X,Y pos of 4 corners*
0 Add a 4 corners polygon primitive as box body*
4,1,4,$2,$3,$4,$5,$6,$7,$8,$9,$2,$3,0*
0 Add four circle primitives for the rounded corners*
1,1,$1+$1,$2,$3*
1,1,$1+$1,$4,$5*
1,1,$1+$1,$6,$7*
1,1,$1+$1,$8,$9*
0 Add four rect primitives between the rounded corners*
20,1,$1+$1,$2,$3,$4,$5,0*
20,1,$1+$1,$4,$5,$6,$7,0*
20,1,$1+$1,$6,$7,$8,$9,0*
20,1,$1+$1,$8,$9,$2,$3,0*%
G04 Aperture macros list end*
%ADD10RoundRect,0.250000X-0.600000X-0.725000X0.600000X-0.725000X0.600000X0.725000X-0.600000X0.725000X0*%
%ADD11O,1.700000X1.950000*%
%ADD12RoundRect,0.150000X0.590000X0.150000X-0.590000X0.150000X-0.590000X-0.150000X0.590000X-0.150000X0*%
%ADD13R,1.700000X1.700000*%
%ADD14C,1.700000*%
%ADD15RoundRect,0.219000X-0.294000X0.219000X-0.294000X-0.219000X0.294000X-0.219000X0.294000X0.219000X0*%
%ADD16O,0.588000X2.045000*%
%ADD17RoundRect,0.219000X0.219000X0.294000X-0.219000X0.294000X-0.219000X-0.294000X0.219000X-0.294000X0*%
%ADD18RoundRect,0.287778X0.714222X-0.489222X0.714222X0.489222X-0.714222X0.489222X-0.714222X-0.489222X0*%
%ADD19RoundRect,0.244000X-0.269000X0.244000X-0.269000X-0.244000X0.269000X-0.244000X0.269000X0.244000X0*%
%ADD20RoundRect,0.266521X-0.671479X0.346479X-0.671479X-0.346479X0.671479X-0.346479X0.671479X0.346479X0*%
%ADD21R,0.900000X2.000000*%
%ADD22RoundRect,1.025000X1.025000X1.025000X-1.025000X1.025000X-1.025000X-1.025000X1.025000X-1.025000X0*%
%ADD23C,4.100000*%
%ADD24R,4.000000X1.069000*%
%ADD25R,8.890000X10.660000*%
%ADD26RoundRect,0.266521X-0.346479X-0.671479X0.346479X-0.671479X0.346479X0.671479X-0.346479X0.671479X0*%
%ADD27RoundRect,0.250000X-1.000000X-0.300000X1.000000X-0.300000X1.000000X0.300000X-1.000000X0.300000X0*%
%ADD28C,0.500000*%
%ADD29RoundRect,0.250000X-0.920000X-1.550000X0.920000X-1.550000X0.920000X1.550000X-0.920000X1.550000X0*%
%ADD30RoundRect,0.250000X0.450000X0.350000X-0.450000X0.350000X-0.450000X-0.350000X0.450000X-0.350000X0*%
%ADD31RoundRect,0.239000X0.239000X0.274000X-0.239000X0.274000X-0.239000X-0.274000X0.239000X-0.274000X0*%
%ADD32C,3.100000*%
%ADD33C,4.700000*%
%ADD34RoundRect,0.244000X-0.244000X-0.269000X0.244000X-0.269000X0.244000X0.269000X-0.244000X0.269000X0*%
%ADD35R,1.000000X3.000000*%
%ADD36RoundRect,0.250000X1.750000X1.000000X-1.750000X1.000000X-1.750000X-1.000000X1.750000X-1.000000X0*%
%ADD37R,2.000000X1.905000*%
%ADD38O,2.000000X1.905000*%
%ADD39RoundRect,0.244000X0.269000X-0.244000X0.269000X0.244000X-0.269000X0.244000X-0.269000X-0.244000X0*%
%ADD40RoundRect,0.250000X1.000000X-1.750000X1.000000X1.750000X-1.000000X1.750000X-1.000000X-1.750000X0*%
%ADD41O,0.570000X1.950000*%
%ADD42RoundRect,0.219000X0.294000X-0.219000X0.294000X0.219000X-0.294000X0.219000X-0.294000X-0.219000X0*%
%ADD43RoundRect,0.159000X-0.189000X0.159000X-0.189000X-0.159000X0.189000X-0.159000X0.189000X0.159000X0*%
%ADD44RoundRect,0.239000X-0.239000X-0.274000X0.239000X-0.274000X0.239000X0.274000X-0.239000X0.274000X0*%
%ADD45RoundRect,0.260556X-0.677444X1.027444X-0.677444X-1.027444X0.677444X-1.027444X0.677444X1.027444X0*%
%ADD46RoundRect,0.150000X-0.590000X-0.150000X0.590000X-0.150000X0.590000X0.150000X-0.590000X0.150000X0*%
%ADD47O,0.364000X1.742000*%
%ADD48RoundRect,0.219000X-0.219000X-0.294000X0.219000X-0.294000X0.219000X0.294000X-0.219000X0.294000X0*%
%ADD49RoundRect,0.159000X-0.159000X-0.189000X0.159000X-0.189000X0.159000X0.189000X-0.159000X0.189000X0*%
%ADD50RoundRect,0.159000X0.189000X-0.159000X0.189000X0.159000X-0.189000X0.159000X-0.189000X-0.159000X0*%
%ADD51RoundRect,0.244000X0.244000X0.269000X-0.244000X0.269000X-0.244000X-0.269000X0.244000X-0.269000X0*%
%ADD52R,2.900000X5.400000*%
%ADD53RoundRect,0.260556X1.027444X0.677444X-1.027444X0.677444X-1.027444X-0.677444X1.027444X-0.677444X0*%
%ADD54RoundRect,0.100000X0.640000X0.100000X-0.640000X0.100000X-0.640000X-0.100000X0.640000X-0.100000X0*%
%ADD55RoundRect,0.250000X-1.750000X-1.000000X1.750000X-1.000000X1.750000X1.000000X-1.750000X1.000000X0*%
G04 APERTURE END LIST*
D10*
%TO.C,J9*%
X154950000Y-135055000D03*
D11*
X157450000Y-135055000D03*
X159950000Y-135055000D03*
X162450000Y-135055000D03*
X164950000Y-135055000D03*
X167450000Y-135055000D03*
%TD*%
D12*
%TO.C,Q10*%
X143280000Y-126600000D03*
X143280000Y-124700000D03*
X141400000Y-125650000D03*
%TD*%
D13*
%TO.C,J7*%
X162400000Y-111900000D03*
D14*
X159860000Y-111900000D03*
X157320000Y-111900000D03*
%TD*%
D15*
%TO.C,R28*%
X115700000Y-114430000D03*
X115700000Y-116070000D03*
%TD*%
D10*
%TO.C,J6*%
X137750000Y-135055000D03*
D11*
X140250000Y-135055000D03*
X142750000Y-135055000D03*
X145250000Y-135055000D03*
%TD*%
D16*
%TO.C,U6*%
X116220000Y-122890000D03*
X117490000Y-122890000D03*
X118750000Y-122890000D03*
X120020000Y-122890000D03*
X120020000Y-117750000D03*
X118750000Y-117750000D03*
X117490000Y-117750000D03*
X116220000Y-117750000D03*
%TD*%
D17*
%TO.C,R3*%
X143070000Y-111250000D03*
X141430000Y-111250000D03*
%TD*%
D15*
%TO.C,R6*%
X145600000Y-124830000D03*
X145600000Y-126470000D03*
%TD*%
D18*
%TO.C,S1*%
X172103750Y-119455000D03*
X172103750Y-115305000D03*
%TD*%
D19*
%TO.C,C11*%
X105000000Y-105470000D03*
X105000000Y-107030000D03*
%TD*%
D20*
%TO.C,C14*%
X107246750Y-105431089D03*
X107246750Y-108391089D03*
%TD*%
D15*
%TO.C,R5*%
X132380000Y-121830000D03*
X132380000Y-123470000D03*
%TD*%
D21*
%TO.C,J5*%
X117050000Y-134150000D03*
X103550000Y-134150000D03*
D22*
X106700000Y-128150000D03*
D23*
X113900000Y-128150000D03*
%TD*%
D24*
%TO.C,U3*%
X107660000Y-117900000D03*
X107660000Y-116200000D03*
X107660000Y-114500000D03*
X107660000Y-112800000D03*
X107660000Y-111100000D03*
D25*
X97000000Y-114500000D03*
%TD*%
D26*
%TO.C,C15*%
X87520000Y-107750000D03*
X90480000Y-107750000D03*
%TD*%
D12*
%TO.C,Q9*%
X138520000Y-124600000D03*
X138520000Y-122700000D03*
X136640000Y-123650000D03*
%TD*%
D27*
%TO.C,U4*%
X163750000Y-99185000D03*
X163750000Y-96885000D03*
X163750000Y-94585000D03*
D28*
X157780000Y-95885000D03*
X157780000Y-96885000D03*
D29*
X157780000Y-96885000D03*
D28*
X157780000Y-97885000D03*
%TD*%
D30*
%TO.C,X2*%
X168503750Y-116580000D03*
X166303750Y-116580000D03*
X166303750Y-118340000D03*
X168503750Y-118340000D03*
%TD*%
D31*
%TO.C,D5*%
X173093750Y-121280000D03*
X171513750Y-121280000D03*
%TD*%
D32*
%TO.C,H1*%
X82000000Y-92000000D03*
D33*
X82000000Y-92000000D03*
%TD*%
D34*
%TO.C,C10*%
X87720000Y-110000000D03*
X89280000Y-110000000D03*
%TD*%
D35*
%TO.C,J2*%
X108950000Y-93038272D03*
X108950000Y-98078272D03*
X111490000Y-93038272D03*
X111490000Y-98078272D03*
X114030000Y-93038272D03*
X114030000Y-98078272D03*
X116570000Y-93038272D03*
X116570000Y-98078272D03*
X119110000Y-93038272D03*
X119110000Y-98078272D03*
X121650000Y-93038272D03*
X121650000Y-98078272D03*
X124190000Y-93038272D03*
X124190000Y-98078272D03*
X126730000Y-93038272D03*
X126730000Y-98078272D03*
X129270000Y-93038272D03*
X129270000Y-98078272D03*
X131810000Y-93038272D03*
X131810000Y-98078272D03*
X134350000Y-93038272D03*
X134350000Y-98078272D03*
X136890000Y-93038272D03*
X136890000Y-98078272D03*
X139430000Y-93038272D03*
X139430000Y-98078272D03*
X141970000Y-93038272D03*
X141970000Y-98078272D03*
X144510000Y-93038272D03*
X144510000Y-98078272D03*
X147050000Y-93038272D03*
X147050000Y-98078272D03*
%TD*%
D34*
%TO.C,C16*%
X165840000Y-94585000D03*
X167400000Y-94585000D03*
%TD*%
D36*
%TO.C,C9*%
X89000000Y-116500000D03*
X81000000Y-116500000D03*
%TD*%
D37*
%TO.C,Q1*%
X150530000Y-128290000D03*
D38*
X150530000Y-125750000D03*
X150530000Y-123210000D03*
%TD*%
D17*
%TO.C,R2*%
X143820000Y-113000000D03*
X142180000Y-113000000D03*
%TD*%
D39*
%TO.C,C6*%
X164903750Y-115260000D03*
X164903750Y-113700000D03*
%TD*%
D40*
%TO.C,C12*%
X134000000Y-111500000D03*
X134000000Y-103500000D03*
%TD*%
D21*
%TO.C,J4*%
X100500000Y-133150000D03*
X87000000Y-133150000D03*
D22*
X97350000Y-127150000D03*
D23*
X90150000Y-127150000D03*
%TD*%
D13*
%TO.C,J3*%
X175895000Y-108220000D03*
D14*
X175895000Y-105680000D03*
X175895000Y-103140000D03*
X175895000Y-100600000D03*
%TD*%
D19*
%TO.C,C4*%
X114870000Y-117790000D03*
X114870000Y-119350000D03*
%TD*%
D34*
%TO.C,C18*%
X165940000Y-96885000D03*
X167500000Y-96885000D03*
%TD*%
D41*
%TO.C,U2*%
X170510000Y-100875000D03*
X169240000Y-100875000D03*
X167960000Y-100875000D03*
X166690000Y-100875000D03*
X166690000Y-106295000D03*
X167960000Y-106295000D03*
X169240000Y-106295000D03*
X170510000Y-106295000D03*
%TD*%
D42*
%TO.C,R20*%
X154700000Y-127120000D03*
X154700000Y-125480000D03*
%TD*%
D43*
%TO.C,R12*%
X169903750Y-118580000D03*
X169903750Y-119580000D03*
%TD*%
D44*
%TO.C,D3*%
X175375000Y-98005000D03*
X176955000Y-98005000D03*
%TD*%
D45*
%TO.C,D1*%
X80750000Y-125250000D03*
X80750000Y-129250000D03*
%TD*%
D46*
%TO.C,Q12*%
X132300000Y-125200000D03*
X132300000Y-127100000D03*
X134180000Y-126150000D03*
%TD*%
D47*
%TO.C,U1*%
X147430000Y-103630000D03*
X146780000Y-103630000D03*
X146130000Y-103630000D03*
X145480000Y-103630000D03*
X144820000Y-103630000D03*
X144170000Y-103630000D03*
X143520000Y-103630000D03*
X142870000Y-103630000D03*
X142220000Y-103630000D03*
X141570000Y-103630000D03*
X141570000Y-109370000D03*
X142220000Y-109370000D03*
X142870000Y-109370000D03*
X143520000Y-109370000D03*
X144170000Y-109370000D03*
X144820000Y-109370000D03*
X145480000Y-109370000D03*
X146130000Y-109370000D03*
X146780000Y-109370000D03*
X147430000Y-109370000D03*
%TD*%
D48*
%TO.C,R18*%
X118550000Y-115570000D03*
X120190000Y-115570000D03*
%TD*%
D39*
%TO.C,C2*%
X171900000Y-106145000D03*
X171900000Y-104585000D03*
%TD*%
D49*
%TO.C,R1*%
X173200000Y-98285000D03*
X174200000Y-98285000D03*
%TD*%
D34*
%TO.C,C1*%
X148720000Y-109500000D03*
X150280000Y-109500000D03*
%TD*%
D50*
%TO.C,R24*%
X154100000Y-131400000D03*
X154100000Y-130400000D03*
%TD*%
D46*
%TO.C,Q11*%
X136500000Y-126400000D03*
X136500000Y-128300000D03*
X138380000Y-127350000D03*
%TD*%
D43*
%TO.C,R23*%
X155100000Y-130400000D03*
X155100000Y-131400000D03*
%TD*%
D15*
%TO.C,R21*%
X117000000Y-114180000D03*
X117000000Y-115820000D03*
%TD*%
D51*
%TO.C,C3*%
X168183750Y-115080000D03*
X166623750Y-115080000D03*
%TD*%
D52*
%TO.C,L1*%
X87550000Y-100000000D03*
X97450000Y-100000000D03*
%TD*%
D48*
%TO.C,R4*%
X152680000Y-128300000D03*
X154320000Y-128300000D03*
%TD*%
D53*
%TO.C,D2*%
X105250000Y-102750000D03*
X101250000Y-102750000D03*
%TD*%
D54*
%TO.C,U5*%
X163176250Y-120700000D03*
X163176250Y-120050000D03*
X163176250Y-119400000D03*
X163176250Y-118750000D03*
X163176250Y-118110000D03*
X163176250Y-117450000D03*
X163176250Y-116810000D03*
X163176250Y-116160000D03*
X163176250Y-115510000D03*
X163176250Y-114860000D03*
X157456250Y-114860000D03*
X157456250Y-115510000D03*
X157456250Y-116160000D03*
X157456250Y-116810000D03*
X157456250Y-117450000D03*
X157456250Y-118110000D03*
X157456250Y-118750000D03*
X157456250Y-119400000D03*
X157456250Y-120050000D03*
X157456250Y-120700000D03*
%TD*%
D15*
%TO.C,R14*%
X114750000Y-108430000D03*
X114750000Y-110070000D03*
%TD*%
D48*
%TO.C,R7*%
X140755000Y-122750000D03*
X142395000Y-122750000D03*
%TD*%
D49*
%TO.C,R13*%
X169203750Y-121580000D03*
X170203750Y-121580000D03*
%TD*%
D51*
%TO.C,C17*%
X105355000Y-100125000D03*
X103795000Y-100125000D03*
%TD*%
D34*
%TO.C,C5*%
X166523750Y-119880000D03*
X168083750Y-119880000D03*
%TD*%
D55*
%TO.C,C13*%
X118000000Y-107500000D03*
X126000000Y-107500000D03*
%TD*%
D15*
%TO.C,R17*%
X154800000Y-117200000D03*
X154800000Y-118840000D03*
%TD*%
D42*
%TO.C,R27*%
X114200000Y-116070000D03*
X114200000Y-114430000D03*
%TD*%
D49*
%TO.C,R19*%
X148500000Y-108000000D03*
X149500000Y-108000000D03*
%TD*%
D15*
%TO.C,R16*%
X114750000Y-111430000D03*
X114750000Y-113070000D03*
%TD*%
M02*
